<svg width="200" height="139" viewBox="0 0 200 139" fill="none" xmlns="http://www.w3.org/2000/svg">
<g clip-path="url(#clip0_190_657)">
<path d="M39.8487 139C61.8565 139 79.6974 137.646 79.6974 135.977C79.6974 134.307 61.8565 132.954 39.8487 132.954C17.8409 132.954 0 134.307 0 135.977C0 137.646 17.8409 139 39.8487 139Z" fill="#E6E6E6"/>
<path d="M30.4596 30.8416C37.3945 27.8952 46.032 29.762 54.4674 31.0577C54.5459 29.4886 55.4974 27.579 54.5007 26.4844C53.2898 25.1544 53.4013 23.7571 54.1299 22.3517C55.9932 18.7578 53.3236 14.9338 50.6282 11.7542C50.0207 11.0391 49.2529 10.4773 48.3872 10.1143C47.5214 9.75131 46.5822 9.59744 45.6458 9.66517L40.6527 10.0214C39.4377 10.1081 38.2782 10.5634 37.3293 11.3264C36.3804 12.0893 35.6874 13.1236 35.343 14.2907C34.1508 15.9105 33.5126 17.5257 33.9144 19.1325C32.1286 20.3516 31.8286 21.8231 32.6311 23.482C33.3115 24.5265 33.3043 25.5433 32.6001 26.5319C31.6753 27.7922 30.967 29.1976 30.5042 30.6903L30.4596 30.8416Z" fill="#2F2E41"/>
<path d="M195.261 120.163H53.9196C52.6626 120.163 51.4572 119.665 50.5684 118.777C49.6796 117.889 49.1803 116.685 49.1803 115.429C100.416 109.481 150.69 109.481 200 115.429C200 116.685 199.501 117.889 198.612 118.777C197.723 119.665 196.518 120.163 195.261 120.163Z" fill="#2F2E41"/>
<path d="M200 115.708L49.1803 115.429L66.6598 86.0497L66.7434 85.9104V21.1615C66.7434 20.3756 66.8983 19.5974 67.1993 18.8712C67.5004 18.1451 67.9417 17.4854 68.498 16.9297C69.0543 16.3739 69.7148 15.9331 70.4417 15.6324C71.1686 15.3317 71.9476 15.1769 72.7344 15.177H175.61C176.396 15.1769 177.175 15.3317 177.902 15.6324C178.629 15.9331 179.29 16.3739 179.846 16.9297C180.402 17.4854 180.844 18.1451 181.145 18.8712C181.446 19.5974 181.601 20.3756 181.601 21.1615V86.356L200 115.708Z" fill="#3F3D56"/>
<path d="M72.5978 19.3542C72.0804 19.3548 71.5844 19.5604 71.2185 19.9258C70.8527 20.2913 70.6469 20.7868 70.6463 21.3036V80.3409C70.6469 80.8577 70.8527 81.3532 71.2186 81.7187C71.5844 82.0841 72.0804 82.2897 72.5978 82.2903H176.583C177.1 82.2896 177.596 82.0841 177.962 81.7186C178.328 81.3532 178.533 80.8577 178.534 80.3409V21.3036C178.533 20.7868 178.328 20.2913 177.962 19.9259C177.596 19.5604 177.1 19.3549 176.583 19.3542H72.5978Z" fill="#7E7E7E"/>
<path d="M73.0335 90.0877C72.8737 90.0879 72.7172 90.1338 72.5826 90.22C72.448 90.3061 72.3408 90.4289 72.2737 90.5739L66.8877 102.27C66.8291 102.397 66.8035 102.537 66.8132 102.677C66.8229 102.817 66.8676 102.952 66.9433 103.07C67.0189 103.188 67.1231 103.285 67.2461 103.352C67.3692 103.419 67.5072 103.455 67.6474 103.455H180.911C181.054 103.455 181.194 103.418 181.319 103.349C181.443 103.279 181.548 103.179 181.623 103.058C181.698 102.937 181.741 102.799 181.747 102.657C181.753 102.514 181.723 102.373 181.659 102.246L175.805 90.5494C175.736 90.4104 175.629 90.2934 175.497 90.2118C175.365 90.1302 175.213 90.0872 175.057 90.0877H73.0335Z" fill="#2F2E41"/>
<path d="M124.172 18.3796C124.865 18.3796 125.426 17.8185 125.426 17.1264C125.426 16.4343 124.865 15.8733 124.172 15.8733C123.479 15.8733 122.917 16.4343 122.917 17.1264C122.917 17.8185 123.479 18.3796 124.172 18.3796Z" fill="#7E7E7E"/>
<path d="M113.039 105.682C112.855 105.683 112.677 105.743 112.531 105.855C112.385 105.967 112.28 106.123 112.232 106.301L110.881 111.313C110.847 111.437 110.843 111.567 110.868 111.693C110.893 111.818 110.946 111.937 111.024 112.039C111.102 112.14 111.203 112.223 111.318 112.28C111.433 112.336 111.56 112.366 111.688 112.366H137.381C137.515 112.366 137.646 112.334 137.765 112.273C137.883 112.212 137.985 112.124 138.063 112.015C138.14 111.907 138.19 111.781 138.209 111.649C138.228 111.517 138.215 111.383 138.171 111.257L136.434 106.245C136.378 106.08 136.271 105.938 136.129 105.837C135.988 105.737 135.818 105.682 135.644 105.682H113.039Z" fill="#2F2E41"/>
<path d="M181.6 84.9358V86.0496H66.6598L66.7463 85.9105V84.9358H181.6Z" fill="#2F2E41"/>
<path d="M178.395 38.9869C189.172 38.9869 197.909 30.2594 197.909 19.4935C197.909 8.72752 189.172 0 178.395 0C167.617 0 158.88 8.72752 158.88 19.4935C158.88 30.2594 167.617 38.9869 178.395 38.9869Z" fill="black"/>
<path d="M186.479 27.987H170.31C170.014 27.9867 169.731 27.8693 169.522 27.6604C169.313 27.4516 169.195 27.1684 169.195 26.8731V17.1264C169.195 16.831 169.313 16.5479 169.522 16.3391C169.731 16.1302 170.014 16.0128 170.31 16.0125H186.479C186.775 16.0128 187.058 16.1302 187.267 16.3391C187.476 16.5479 187.594 16.831 187.594 17.1264V26.8731C187.594 27.1684 187.476 27.4516 187.267 27.6604C187.058 27.8693 186.775 27.9867 186.479 27.987ZM170.31 17.1264V26.8731H186.48L186.479 17.1264L170.31 17.1264Z" fill="#7E7E7E"/>
<path d="M183.413 17.1264H173.377V12.6708C173.377 9.44352 175.487 7.1012 178.395 7.1012C181.302 7.1012 183.413 9.44352 183.413 12.6708L183.413 17.1264ZM174.492 16.0125H182.298V12.6708C182.298 10.0474 180.693 8.21511 178.395 8.21511C176.097 8.21511 174.492 10.0474 174.492 12.6708L174.492 16.0125Z" fill="#7E7E7E"/>
<path d="M178.395 22.8352C179.01 22.8352 179.51 22.3365 179.51 21.7213C179.51 21.1061 179.01 20.6074 178.395 20.6074C177.779 20.6074 177.279 21.1061 177.279 21.7213C177.279 22.3365 177.779 22.8352 178.395 22.8352Z" fill="#7E7E7E"/>
<path d="M164.772 62.2654H84.4086C84.014 62.2649 83.6358 62.1082 83.3568 61.8295C83.0778 61.5508 82.9208 61.1729 82.9204 60.7788V40.8657C82.9208 40.4716 83.0778 40.0937 83.3568 39.815C83.6358 39.5363 84.014 39.3796 84.4086 39.3791H164.772C165.166 39.3796 165.545 39.5363 165.824 39.815C166.103 40.0937 166.259 40.4716 166.26 40.8657V60.7788C166.259 61.1729 166.103 61.5508 165.824 61.8295C165.545 62.1082 165.166 62.2649 164.772 62.2654ZM84.4086 39.9737C84.1718 39.974 83.9449 40.0681 83.7775 40.2353C83.6101 40.4025 83.5159 40.6292 83.5157 40.8657V60.7788C83.5159 61.0153 83.6101 61.242 83.7775 61.4092C83.9449 61.5765 84.1718 61.6705 84.4086 61.6708H164.772C165.008 61.6705 165.235 61.5765 165.403 61.4092C165.57 61.242 165.664 61.0153 165.665 60.7788V40.8657C165.664 40.6292 165.57 40.4025 165.403 40.2353C165.235 40.068 165.008 39.974 164.772 39.9737L84.4086 39.9737Z" fill="#E6E6E6"/>
<path d="M96.8954 56.1138C100.243 56.1138 102.958 53.4026 102.958 50.0582C102.958 46.7138 100.243 44.0026 96.8954 44.0026C93.5473 44.0026 90.8332 46.7138 90.8332 50.0582C90.8332 53.4026 93.5473 56.1138 96.8954 56.1138Z" fill="#E6E6E6"/>
<path d="M110.896 46.0211C110.763 46.0209 110.632 46.0469 110.509 46.0975C110.386 46.1481 110.275 46.2224 110.181 46.3162C110.087 46.4099 110.012 46.5212 109.961 46.6438C109.91 46.7663 109.884 46.8977 109.884 47.0304C109.884 47.1631 109.91 47.2944 109.961 47.417C110.012 47.5395 110.087 47.6509 110.181 47.7446C110.275 47.8383 110.386 47.9126 110.509 47.9633C110.632 48.0139 110.763 48.0399 110.896 48.0396H158.527C158.795 48.0396 159.052 47.9333 159.242 47.744C159.431 47.5548 159.538 47.2981 159.538 47.0304C159.538 46.7627 159.431 46.506 159.242 46.3167C159.052 46.1274 158.795 46.0211 158.527 46.0211H110.896Z" fill="#E6E6E6"/>
<path d="M110.896 52.0767C110.628 52.0767 110.371 52.183 110.182 52.3723C109.992 52.5615 109.886 52.8183 109.886 53.0859C109.886 53.3536 109.992 53.6103 110.182 53.7996C110.371 53.9889 110.628 54.0952 110.896 54.0952H131.392C131.66 54.0952 131.917 53.9889 132.106 53.7996C132.296 53.6103 132.402 53.3536 132.402 53.0859C132.402 52.8183 132.296 52.5615 132.106 52.3723C131.917 52.183 131.66 52.0767 131.392 52.0767H110.896Z" fill="#E6E6E6"/>
<path d="M66.4621 52.485L51.6063 60.3745L51.4182 53.7999C56.2671 52.9914 60.8802 51.5836 65.1457 49.2917L66.6994 45.4572C66.8687 45.0394 67.1439 44.6727 67.4979 44.3932C67.8519 44.1137 68.2726 43.931 68.7187 43.8629C69.1648 43.7949 69.6209 43.8439 70.0423 44.0051C70.4637 44.1663 70.8358 44.4343 71.1223 44.7826C71.5413 45.2922 71.7508 45.9418 71.7082 46.6C71.6657 47.2581 71.3743 47.8755 70.8931 48.327L66.4621 52.485Z" fill="#FFB8B8"/>
<path d="M30.1635 98.0358C30.0551 97.6387 30.0321 97.2233 30.096 96.8167C30.1598 96.4101 30.3091 96.0217 30.534 95.6769L33.7974 90.674C34.5693 89.4907 35.7537 88.636 37.1207 88.2758C38.4878 87.9155 39.9401 88.0753 41.1959 88.7243C39.8244 91.0563 40.0156 93.1021 41.6696 94.8799C39.102 96.132 36.7289 97.7481 34.6239 99.678C34.2396 99.9397 33.7983 100.106 33.3367 100.163C32.8751 100.22 32.4066 100.165 31.9702 100.005C31.5338 99.844 31.1422 99.5815 30.8279 99.239C30.5136 98.8965 30.2858 98.484 30.1635 98.0358Z" fill="#2F2E41"/>
<path d="M67.1387 91.4945C66.6448 92.3167 65.9478 92.9982 65.1143 93.4738C64.2809 93.9493 63.3391 94.2029 62.3793 94.2102L40.6995 94.3742L39.7593 88.9267L49.3497 86.1091L41.2637 79.9102L50.1019 69.5788L66.1549 84.5246C67.0931 85.3982 67.7027 86.567 67.8818 87.8356C68.0609 89.1043 67.7985 90.3959 67.1387 91.4945Z" fill="#2F2E41"/>
<path d="M37.3147 128.75H32.2374C27.6787 97.5357 23.0384 66.2343 36.7505 54.5513L52.9226 57.1811L50.8541 70.8937L41.8278 81.2251L37.3147 128.75Z" fill="#2F2E41"/>
<path d="M41.7779 135.821C41.3804 135.929 40.9645 135.952 40.5575 135.888C40.1505 135.824 39.7616 135.675 39.4164 135.451L33.9035 134.71C32.7189 133.939 31.8632 132.756 31.5025 131.391C31.1417 130.025 31.3016 128.574 31.9512 127.32C34.2858 128.69 36.3338 128.499 38.1135 126.846C39.371 129.383 41.4429 129.228 43.4216 131.365C43.6836 131.749 43.85 132.19 43.9069 132.651C43.9638 133.112 43.9096 133.58 43.7488 134.016C43.5879 134.452 43.3252 134.843 42.9823 135.157C42.6395 135.471 42.2266 135.698 41.7779 135.821Z" fill="#2F2E41"/>
<path d="M49.3497 33.7006L39.9473 31.4464C41.5089 28.2535 41.6375 24.7006 40.8876 20.9272L47.2812 20.7393C47.4815 25.4317 48.0876 29.8156 49.3497 33.7006Z" fill="#FFB8B8"/>
<path d="M51.9338 62.837C45.0892 67.496 40.2531 62.9964 36.5625 56.054C37.0753 51.8059 36.245 46.7222 34.7071 41.1984C34.0231 38.762 34.2785 36.158 35.4227 33.9004C36.5669 31.6429 38.5169 29.896 40.8876 29.0045L48.9736 32.3857C55.8396 37.9762 57.191 44.0318 54.615 50.4187L51.9338 62.837Z" fill="black"/>
<path d="M32.2374 38.3967L24.7155 42.3414L38.0669 50.2309L39.9246 54.8084C40.0486 55.1139 40.109 55.4414 40.1022 55.771C40.0953 56.1007 40.0213 56.4254 39.8847 56.7255C39.748 57.0256 39.5517 57.2948 39.3075 57.5166C39.0634 57.7384 38.7765 57.9082 38.4645 58.0157C38.1099 58.1379 37.7317 58.1764 37.3597 58.1282C36.9876 58.08 36.6318 57.9464 36.32 57.7379C36.0083 57.5294 35.7491 57.2517 35.5628 56.9264C35.3764 56.6011 35.268 56.2372 35.246 55.8631L35.0581 52.6728L18.0887 47.079C17.5169 46.8905 16.9956 46.5745 16.5642 46.155C16.1328 45.7355 15.8027 45.2234 15.5987 44.6575C15.3015 43.8327 15.2863 42.9327 15.5557 42.0983C15.8251 41.264 16.3637 40.5424 17.0874 40.0465L30.733 30.6951L32.2374 38.3967Z" fill="#FFB8B8"/>
<path d="M39.7593 39.148C36.6222 37.7747 33.7695 39.2666 30.1689 40.4629L29.6047 30.5072C33.1801 28.6037 36.5889 28.0904 39.7593 29.568L39.7593 39.148Z" fill="black"/>
<path d="M43.512 25.6707C46.8274 25.6707 49.515 22.986 49.515 19.6742C49.515 16.3624 46.8274 13.6776 43.512 13.6776C40.1966 13.6776 37.5089 16.3624 37.5089 19.6742C37.5089 22.986 40.1966 25.6707 43.512 25.6707Z" fill="#FFB8B8"/>
<path d="M50.6936 18.9176C44.75 19.499 40.2211 18.5281 37.3266 15.7633V13.5368H50.1891L50.6936 18.9176Z" fill="#2F2E41"/>
</g>
<defs>
<clipPath id="clip0_190_657">
<rect width="200" height="139" fill="white"/>
</clipPath>
</defs>
</svg>
