<svg width="200" height="138" viewBox="0 0 200 138" fill="none" xmlns="http://www.w3.org/2000/svg">
<g clip-path="url(#clip0_190_710)">
<path opacity="0.1" d="M113.126 18.7882C100.306 18.8053 87.9667 15.1731 76.1639 11.1382C64.3612 7.10318 52.6493 2.58483 40.068 0.670189C31.9765 -0.560531 22.7755 -0.4474 16.4505 4.02124C10.3622 8.32019 8.59914 15.4354 7.74849 22.0089C7.10879 26.9541 6.8138 32.1444 9.20968 36.6679C10.8732 39.8081 13.7202 42.3964 15.7267 45.3892C22.7309 55.8006 18.5188 69.1003 11.7119 79.7533C8.52025 84.7516 4.78151 89.5425 2.36848 94.8271C-0.044545 100.112 -1.03411 106.104 1.42694 111.32C3.86569 116.49 9.37432 120.242 15.286 122.805C27.2911 128.019 41.2685 129.136 54.8703 129.567C84.9791 130.521 115.146 128.574 145.233 126.627C156.367 125.907 167.55 125.182 178.454 123.096C184.508 121.939 190.742 120.221 195.035 116.457C200.484 111.678 201.598 103.876 197.633 98.2673C190.984 88.8603 173.452 87.0862 168.684 76.908C166.055 71.3046 168.322 64.8784 171.661 59.4773C178.823 47.8883 191.151 37.5078 191.358 24.5458C191.5 15.6445 185.09 6.96091 175.515 3.0922C165.479 -0.959914 151.794 0.082255 144.763 7.63455C137.532 15.4148 124.445 18.7762 113.126 18.7882Z" fill="black"/>
<path d="M170.22 110.621C170.22 110.621 168.113 109.23 166.024 110.22C166.024 110.22 166.667 111.458 169.311 111.341L170.22 110.621Z" fill="black"/>
<path d="M170.488 110.694C170.488 110.694 171.129 113.135 169.521 114.796C169.521 114.796 168.553 113.79 169.521 111.325L170.488 110.694Z" fill="black"/>
<path d="M173.109 108.351C173.109 108.351 172.953 106.276 168.262 106.965C168.262 106.965 168.24 108.303 169.886 108.938C171.532 109.572 172.287 109.037 173.109 108.351Z" fill="black"/>
<path d="M173.404 108.338C173.404 108.338 175.386 108.974 173.618 113.37C173.618 113.37 172.309 113.079 172.074 111.329C171.839 109.579 172.536 108.975 173.404 108.338Z" fill="black"/>
<path d="M176.051 105.393C176.051 105.393 176.321 101.977 171.527 102.326C171.527 102.326 171.184 105.412 175.206 106.214L176.051 105.393Z" fill="black"/>
<path d="M179.219 101.536C179.219 101.536 178.562 97.664 173.771 98.8176C173.771 98.8176 173.753 102.165 178.437 102.458L179.219 101.536Z" fill="black"/>
<path d="M181.534 97.5491C181.534 97.5491 180.433 93.7781 175.686 94.906C175.686 94.906 176.816 98.2982 181.219 98.245L181.534 97.5491Z" fill="black"/>
<path d="M183.733 93.6547C183.733 93.6547 182.658 89.7414 178.073 90.9121C178.073 90.9121 179.603 94.63 183.429 94.3163L183.733 93.6547Z" fill="black"/>
<path d="M185.15 89.9557C185.15 89.9557 184.323 85.1699 180.049 86.2292C180.049 86.2292 181.291 90.5831 184.836 90.6534L185.15 89.9557Z" fill="black"/>
<path d="M186.479 85.487C186.479 85.487 185.486 80.6635 181.162 82.0588C181.162 82.0588 182.857 86.6183 186.172 86.1469L186.479 85.487Z" fill="black"/>
<path d="M187.295 81.3286C187.295 81.3286 185.719 76.5034 182.376 76.6337C182.376 76.6337 183.987 81.7297 187.016 82.2902L187.295 81.3286Z" fill="black"/>
<path d="M187.823 77.2697C187.823 77.2697 186.108 71.4623 183.388 71.9097C183.388 71.9097 184.575 76.3492 187.727 78.1747L187.823 77.2697Z" fill="black"/>
<path d="M188.122 72.4273C188.122 72.4273 186.513 67.5884 183.834 67.3947C183.834 67.3947 184.928 72.1564 188.069 73.6854L188.122 72.4273Z" fill="black"/>
<path d="M188.446 67.9089C188.446 67.9089 186.441 63.0649 184.673 62.9552C184.673 62.9552 185.544 67.7255 188.275 68.7043L188.446 67.9089Z" fill="black"/>
<path d="M188.667 63.706C188.667 63.706 187.434 58.4455 185.663 58.0084C185.663 58.0084 185.904 62.3125 188.489 64.1003L188.667 63.706Z" fill="black"/>
<path d="M189.336 58.2004C189.336 58.2004 188.039 54.006 186.604 53.3666C186.604 53.3666 186.887 58.3118 189.005 59.2254L189.336 58.2004Z" fill="black"/>
<path d="M189.89 54.6007L190.151 47.2061C190.151 47.2061 187.467 52.7804 189.696 55.8983L189.89 54.6007Z" fill="black"/>
<path d="M191.962 47.2456C191.962 47.2456 193.894 41.8462 194.363 41.5445C194.363 41.5445 190.573 45.0481 190.943 49.5544L191.962 47.2456Z" fill="black"/>
<path d="M176.182 105.367C176.182 105.367 179.581 104.923 179.48 109.724C179.48 109.724 176.408 110.225 175.405 106.253L176.182 105.367Z" fill="black"/>
<path d="M179.38 101.406C179.38 101.406 183.308 101.394 182.982 106.308C182.982 106.308 179.684 106.898 178.597 102.335L179.38 101.406Z" fill="black"/>
<path d="M181.572 97.8662C181.572 97.8662 185.138 96.195 187.419 100.509C187.419 100.509 184.126 101.901 181.257 98.5639L181.572 97.8662Z" fill="black"/>
<path d="M183.812 93.6907C183.812 93.6907 187.463 91.9132 189.607 96.1264C189.607 96.1264 185.803 97.436 183.51 94.3575L183.812 93.6907Z" fill="black"/>
<path d="M185.103 90.0602C185.103 90.0602 188.617 86.7057 191.421 90.0979C191.421 90.0979 187.832 92.8593 184.942 90.8076L185.103 90.0602Z" fill="black"/>
<path d="M186.28 85.3721C186.28 85.3721 189.815 81.9439 192.596 85.5298C192.596 85.5298 188.629 88.3461 186.153 86.092L186.28 85.3721Z" fill="black"/>
<path d="M186.94 81.1915C186.94 81.1915 189.664 76.9063 192.871 77.8627C192.871 77.8627 190.044 82.3999 186.971 82.1976L186.94 81.1915Z" fill="black"/>
<path d="M187.743 77.2422C187.743 77.2422 190.487 71.8463 193.083 72.7856C193.083 72.7856 191.104 76.9337 187.672 78.1524L187.743 77.2422Z" fill="black"/>
<path d="M187.933 72.1462C187.933 72.1462 190.754 67.8987 193.397 68.418C193.397 68.418 191.09 72.7256 187.659 73.3752L187.933 72.1462Z" fill="black"/>
<path d="M188.153 67.8147C188.153 67.8147 190.339 63.0478 192.116 63.0153C192.116 63.0153 191.067 67.7479 188.3 68.6238L188.153 67.8147Z" fill="black"/>
<path d="M188.582 63.6032C188.582 63.6032 191.012 58.7763 192.838 58.7661C192.838 58.7661 191.595 62.8936 188.662 64.0266L188.582 63.6032Z" fill="black"/>
<path d="M188.947 58.502C188.947 58.502 190.765 54.5082 192.27 54.0557C192.27 54.0557 191.362 58.9237 189.147 59.5613L188.947 58.502Z" fill="black"/>
<path d="M190.106 54.4551L194.169 48.2689C194.169 48.2689 193.128 54.3711 189.513 55.6395L190.106 54.4551Z" fill="black"/>
<path d="M192.895 47.7444C192.895 47.7444 197.616 44.4876 197.788 43.9614C197.788 43.9614 195.387 48.5226 190.928 49.3282L192.895 47.7444Z" fill="black"/>
<path d="M193.178 46.2788C193.178 46.2788 198.599 41.0697 199.983 41.0748C199.983 41.0748 195.512 41.2788 193.047 46.0011L193.178 46.2788Z" fill="black"/>
<path d="M189 59.2751L189.197 59.3008C190.216 51.332 191.701 46.6165 193.378 46.0389L193.313 45.8503C191.535 46.4674 190.039 51.1109 189 59.2751Z" fill="#444053"/>
<path d="M187.501 78.3324L187.799 78.3564C187.863 77.6125 187.911 76.8515 187.943 76.0921C188.228 69.4963 188.669 63.4387 189.248 58.898L189.077 58.6838C188.496 63.2347 187.93 69.474 187.645 76.0801C187.612 76.8343 187.564 77.5919 187.501 78.3324Z" fill="#444053"/>
<path d="M164.657 114.423C164.708 114.4 169.961 112.055 175.414 106.464C178.608 103.189 181.262 99.4287 183.277 95.3225C185.798 90.1922 187.335 83.8878 187.849 77.7633L187.539 77.909C186.381 91.656 180.12 101.049 175.141 106.166C169.742 111.708 164.547 114.028 164.496 114.051L164.657 114.423Z" fill="#444053"/>
<path d="M178.259 14.6092H13.4663C13.077 14.6092 12.7036 14.7638 12.4283 15.0389C12.153 15.3141 11.9983 15.6873 11.9983 16.0765V20.3514H179.727V16.0765C179.727 15.6873 179.572 15.3141 179.297 15.0389C179.022 14.7638 178.648 14.6092 178.259 14.6092Z" fill="#3F3D56"/>
<path d="M11.9983 20.3514V116.553C11.9983 117.338 12.3102 118.09 12.8653 118.645C13.4204 119.2 14.1733 119.512 14.9584 119.512H176.767C177.552 119.512 178.305 119.2 178.86 118.645C179.415 118.09 179.727 117.338 179.727 116.553V20.3514H11.9983Z" fill="white"/>
<path opacity="0.8" d="M14.6549 18.1238C15.0337 18.1238 15.3409 17.8167 15.3409 17.4378C15.3409 17.059 15.0337 16.7518 14.6549 16.7518C14.276 16.7518 13.9689 17.059 13.9689 17.4378C13.9689 17.8167 14.276 18.1238 14.6549 18.1238Z" fill="#FA5959"/>
<path opacity="0.8" d="M16.5414 18.1238C16.9202 18.1238 17.2274 17.8167 17.2274 17.4378C17.2274 17.059 16.9202 16.7518 16.5414 16.7518C16.1625 16.7518 15.8553 17.059 15.8553 17.4378C15.8553 17.8167 16.1625 18.1238 16.5414 18.1238Z" fill="#FED253"/>
<path opacity="0.8" d="M18.4279 18.1238C18.8068 18.1238 19.1139 17.8167 19.1139 17.4378C19.1139 17.059 18.8068 16.7518 18.4279 16.7518C18.049 16.7518 17.7419 17.059 17.7419 17.4378C17.7419 17.8167 18.049 18.1238 18.4279 18.1238Z" fill="#8CCF4D"/>
<path opacity="0.05" d="M162.39 36.3919H27.5895V95.6344H162.39V36.3919Z" fill="black"/>
<path d="M161.361 36.841H28.6185V94.7774H161.361V36.841Z" fill="#3F3D56"/>
<path d="M64.8053 51.7519C62.1935 51.7519 59.6403 52.526 57.4686 53.9762C55.297 55.4265 53.6044 57.4878 52.6049 59.8996C51.6054 62.3113 51.3439 64.9651 51.8534 67.5253C52.363 70.0856 53.6207 72.4373 55.4675 74.2832C57.3143 76.129 59.6674 77.3861 62.229 77.8953C64.7906 78.4046 67.4459 78.1432 69.8589 77.1443C72.2719 76.1453 74.3343 74.4536 75.7854 72.2831C77.2364 70.1126 78.0109 67.5608 78.0109 64.9504C78.0109 63.2172 77.6693 61.5009 77.0057 59.8996C76.342 58.2982 75.3693 56.8432 74.1431 55.6176C72.9168 54.3921 71.461 53.4199 69.8589 52.7566C68.2567 52.0933 66.5395 51.7519 64.8053 51.7519ZM67.1737 65.2675V71.5171H62.5055V65.2675C61.8594 64.7788 61.3833 64.0996 61.1443 63.3258C60.9053 62.5521 60.9155 61.7228 61.1734 60.9552C61.4313 60.1875 61.924 59.5202 62.5818 59.0474C63.2396 58.5747 64.0294 58.3203 64.8396 58.3203C65.6498 58.3203 66.4396 58.5747 67.0974 59.0474C67.7552 59.5202 68.2478 60.1875 68.5058 60.9552C68.7637 61.7228 68.7739 62.5521 68.5349 63.3258C68.2959 64.0996 67.8197 64.7788 67.1737 65.2675Z" fill="black"/>
<path opacity="0.05" d="M64.8053 51.7519C62.1935 51.7519 59.6403 52.526 57.4686 53.9762C55.297 55.4265 53.6044 57.4878 52.6049 59.8996C51.6054 62.3113 51.3439 64.9651 51.8534 67.5253C52.363 70.0856 53.6207 72.4373 55.4675 74.2832C57.3143 76.129 59.6674 77.3861 62.229 77.8953C64.7906 78.4046 67.4459 78.1432 69.8589 77.1443C72.2719 76.1453 74.3343 74.4536 75.7854 72.2831C77.2364 70.1126 78.0109 67.5608 78.0109 64.9504C78.0109 63.2172 77.6693 61.5009 77.0057 59.8996C76.342 58.2982 75.3693 56.8432 74.1431 55.6176C72.9168 54.3921 71.461 53.4199 69.8589 52.7566C68.2567 52.0933 66.5395 51.7519 64.8053 51.7519ZM67.1737 65.2675V71.5171H62.5055V65.2675C61.8594 64.7788 61.3833 64.0996 61.1443 63.3258C60.9053 62.5521 60.9155 61.7228 61.1734 60.9552C61.4313 60.1875 61.924 59.5202 62.5818 59.0474C63.2396 58.5747 64.0294 58.3203 64.8396 58.3203C65.6498 58.3203 66.4396 58.5747 67.0974 59.0474C67.7552 59.5202 68.2478 60.1875 68.5058 60.9552C68.7637 61.7228 68.7739 62.5521 68.5349 63.3258C68.2959 64.0996 67.8197 64.7788 67.1737 65.2675Z" fill="black"/>
<path d="M64.8053 47.9809C61.4473 47.9809 58.1646 48.9761 55.3725 50.8408C52.5804 52.7054 50.4042 55.3557 49.1191 58.4565C47.834 61.5573 47.4978 64.9693 48.1529 68.261C48.808 71.5528 50.4251 74.5765 52.7996 76.9497C55.1741 79.3229 58.1994 80.9391 61.4929 81.5939C64.7865 82.2487 68.2003 81.9126 71.3028 80.6282C74.4052 79.3439 77.0569 77.1688 78.9225 74.3782C80.7882 71.5876 81.784 68.3067 81.784 64.9504C81.784 60.4498 79.9951 56.1336 76.811 52.9512C73.6269 49.7688 69.3083 47.9809 64.8053 47.9809ZM67.8495 65.3584V73.3924H61.8469V65.3584C61.016 64.7299 60.4036 63.8565 60.0961 62.8614C59.7886 61.8663 59.8016 60.7998 60.1333 59.8125C60.4649 58.8252 61.0985 57.9669 61.9445 57.3589C62.7905 56.7508 63.8062 56.4237 64.8482 56.4237C65.8902 56.4237 66.9059 56.7508 67.7519 57.3589C68.5979 57.9669 69.2315 58.8252 69.5631 59.8125C69.8948 60.7998 69.9078 61.8663 69.6003 62.8614C69.2928 63.8565 68.6804 64.7299 67.8495 65.3584Z" fill="black"/>
<path d="M143.696 62.7238H88.8156V68.5517H143.696V62.7238Z" fill="white"/>
<path d="M143.696 73.3512H131.862V79.1791H143.696V73.3512Z" fill="black"/>
<path d="M94.2178 65.5503H93.2248L94.108 64.6693C94.1238 64.653 94.1327 64.6312 94.1327 64.6084C94.1327 64.5857 94.1238 64.5639 94.108 64.5476C94.1001 64.5396 94.0906 64.5332 94.0801 64.5288C94.0697 64.5245 94.0585 64.5222 94.0471 64.5222C94.0358 64.5222 94.0246 64.5245 94.0142 64.5288C94.0037 64.5332 93.9942 64.5396 93.9863 64.5476L93.103 65.4303V64.4362C93.103 64.4134 93.094 64.3916 93.0779 64.3756C93.0618 64.3595 93.04 64.3505 93.0173 64.3505C92.9947 64.3509 92.9731 64.3601 92.9571 64.376C92.9411 64.392 92.932 64.4136 92.9315 64.4362V65.4303L92.05 64.5424C92.042 64.5344 92.0326 64.528 92.0221 64.5237C92.0117 64.5193 92.0004 64.5171 91.9891 64.5171C91.9778 64.5171 91.9666 64.5193 91.9561 64.5237C91.9457 64.528 91.9362 64.5344 91.9282 64.5424C91.9124 64.5588 91.9036 64.5806 91.9036 64.6033C91.9036 64.626 91.9124 64.6478 91.9282 64.6641L92.8115 65.5452H91.8168C91.7942 65.5456 91.7726 65.5548 91.7566 65.5708C91.7406 65.5868 91.7315 65.6083 91.731 65.6309C91.731 65.6536 91.74 65.6754 91.7561 65.6915C91.7722 65.7076 91.794 65.7166 91.8168 65.7166H92.8115L91.9282 66.5994C91.9124 66.6157 91.9036 66.6375 91.9036 66.6602C91.9036 66.6829 91.9124 66.7047 91.9282 66.7211C91.9448 66.7365 91.9665 66.7451 91.9891 66.7451C92.0117 66.7451 92.0335 66.7365 92.05 66.7211L92.9315 65.8383V66.8308C92.9315 66.8535 92.9406 66.8753 92.9566 66.8914C92.9727 66.9074 92.9945 66.9165 93.0173 66.9165C93.04 66.9165 93.0618 66.9074 93.0779 66.8914C93.094 66.8753 93.103 66.8535 93.103 66.8308V65.8383L93.9863 66.7211C94.0028 66.7365 94.0245 66.7451 94.0471 66.7451C94.0697 66.7451 94.0915 66.7365 94.108 66.7211C94.1238 66.7047 94.1327 66.6829 94.1327 66.6602C94.1327 66.6375 94.1238 66.6157 94.108 66.5994L93.2248 65.7166H94.2178C94.2405 65.7166 94.2623 65.7076 94.2784 65.6915C94.2945 65.6754 94.3035 65.6536 94.3035 65.6309C94.3022 65.6091 94.2926 65.5886 94.2767 65.5736C94.2607 65.5586 94.2397 65.5503 94.2178 65.5503Z" fill="black"/>
<path d="M97.8193 65.5503H96.8263L97.7095 64.6693C97.7254 64.653 97.7342 64.6312 97.7342 64.6084C97.7342 64.5857 97.7254 64.5639 97.7095 64.5476C97.7016 64.5396 97.6921 64.5332 97.6816 64.5288C97.6712 64.5245 97.66 64.5222 97.6486 64.5222C97.6373 64.5222 97.6261 64.5245 97.6157 64.5288C97.6052 64.5332 97.5957 64.5396 97.5878 64.5476L96.7045 65.4303V64.4362C96.7045 64.4134 96.6955 64.3916 96.6794 64.3756C96.6633 64.3595 96.6415 64.3505 96.6188 64.3505C96.5962 64.3509 96.5746 64.3601 96.5586 64.376C96.5426 64.392 96.5335 64.4136 96.533 64.4362V65.4303L95.6515 64.5424C95.6435 64.5344 95.6341 64.528 95.6236 64.5237C95.6132 64.5193 95.6019 64.5171 95.5906 64.5171C95.5793 64.5171 95.5681 64.5193 95.5576 64.5237C95.5472 64.528 95.5377 64.5344 95.5297 64.5424C95.5139 64.5588 95.5051 64.5806 95.5051 64.6033C95.5051 64.626 95.5139 64.6478 95.5297 64.6641L96.413 65.5452H95.4183C95.3957 65.5456 95.3741 65.5548 95.3581 65.5708C95.3421 65.5868 95.333 65.6083 95.3325 65.6309C95.3325 65.6536 95.3415 65.6754 95.3576 65.6915C95.3737 65.7076 95.3955 65.7166 95.4183 65.7166H96.413L95.5297 66.5994C95.5139 66.6157 95.5051 66.6375 95.5051 66.6602C95.5051 66.6829 95.5139 66.7047 95.5297 66.7211C95.5463 66.7365 95.568 66.7451 95.5906 66.7451C95.6132 66.7451 95.635 66.7365 95.6515 66.7211L96.533 65.8383V66.8308C96.533 66.8535 96.5421 66.8753 96.5581 66.8914C96.5742 66.9074 96.596 66.9165 96.6188 66.9165C96.6415 66.9165 96.6633 66.9074 96.6794 66.8914C96.6955 66.8753 96.7045 66.8535 96.7045 66.8308V65.8383L97.5878 66.7211C97.6043 66.7365 97.626 66.7451 97.6486 66.7451C97.6712 66.7451 97.693 66.7365 97.7095 66.7211C97.7254 66.7047 97.7342 66.6829 97.7342 66.6602C97.7342 66.6375 97.7254 66.6157 97.7095 66.5994L96.8263 65.7166H97.8193C97.842 65.7166 97.8638 65.7076 97.8799 65.6915C97.896 65.6754 97.905 65.6536 97.905 65.6309C97.9037 65.6091 97.8941 65.5886 97.8782 65.5736C97.8622 65.5586 97.8412 65.5503 97.8193 65.5503Z" fill="black"/>
<path d="M101.421 65.5503H100.428L101.311 64.6693C101.327 64.653 101.336 64.6312 101.336 64.6084C101.336 64.5857 101.327 64.5639 101.311 64.5476C101.303 64.5396 101.294 64.5332 101.283 64.5288C101.273 64.5245 101.262 64.5222 101.25 64.5222C101.239 64.5222 101.228 64.5245 101.217 64.5288C101.207 64.5332 101.197 64.5396 101.189 64.5476L100.306 65.4303V64.4362C100.306 64.4134 100.297 64.3916 100.281 64.3756C100.265 64.3595 100.243 64.3505 100.22 64.3505C100.198 64.3509 100.176 64.3601 100.16 64.376C100.144 64.392 100.135 64.4136 100.135 64.4362V65.4303L99.2531 64.5424C99.2451 64.5344 99.2356 64.528 99.2252 64.5237C99.2147 64.5193 99.2035 64.5171 99.1922 64.5171C99.1809 64.5171 99.1697 64.5193 99.1592 64.5237C99.1488 64.528 99.1393 64.5344 99.1313 64.5424C99.1155 64.5588 99.1066 64.5806 99.1066 64.6033C99.1066 64.626 99.1155 64.6478 99.1313 64.6641L100.015 65.5452H99.0198C98.9972 65.5456 98.9757 65.5548 98.9597 65.5708C98.9437 65.5868 98.9345 65.6083 98.9341 65.6309C98.9341 65.6536 98.9431 65.6754 98.9592 65.6915C98.9753 65.7076 98.9971 65.7166 99.0198 65.7166H100.015L99.1313 66.5994C99.1155 66.6157 99.1066 66.6375 99.1066 66.6602C99.1066 66.6829 99.1155 66.7047 99.1313 66.7211C99.1478 66.7365 99.1696 66.7451 99.1922 66.7451C99.2148 66.7451 99.2366 66.7365 99.2531 66.7211L100.135 65.8383V66.8308C100.135 66.8535 100.144 66.8753 100.16 66.8914C100.176 66.9074 100.198 66.9165 100.22 66.9165C100.243 66.9165 100.265 66.9074 100.281 66.8914C100.297 66.8753 100.306 66.8535 100.306 66.8308V65.8383L101.189 66.7211C101.206 66.7365 101.228 66.7451 101.25 66.7451C101.273 66.7451 101.295 66.7365 101.311 66.7211C101.327 66.7047 101.336 66.6829 101.336 66.6602C101.336 66.6375 101.327 66.6157 101.311 66.5994L100.428 65.7166H101.421C101.444 65.7166 101.465 65.7076 101.481 65.6915C101.498 65.6754 101.507 65.6536 101.507 65.6309C101.505 65.6091 101.496 65.5886 101.48 65.5736C101.464 65.5586 101.443 65.5503 101.421 65.5503Z" fill="black"/>
<path d="M105.022 65.5503H104.029L104.913 64.6693C104.928 64.653 104.937 64.6312 104.937 64.6084C104.937 64.5857 104.928 64.5639 104.913 64.5476C104.905 64.5396 104.895 64.5332 104.885 64.5288C104.874 64.5245 104.863 64.5222 104.852 64.5222C104.84 64.5222 104.829 64.5245 104.819 64.5288C104.808 64.5332 104.799 64.5396 104.791 64.5476L103.908 65.4303V64.4362C103.908 64.4134 103.899 64.3916 103.882 64.3756C103.866 64.3595 103.845 64.3505 103.822 64.3505C103.799 64.3509 103.778 64.3601 103.762 64.376C103.746 64.392 103.737 64.4136 103.736 64.4362V65.4303L102.855 64.5424C102.847 64.5344 102.837 64.528 102.827 64.5237C102.816 64.5193 102.805 64.5171 102.794 64.5171C102.782 64.5171 102.771 64.5193 102.761 64.5237C102.75 64.528 102.741 64.5344 102.733 64.5424C102.717 64.5588 102.708 64.5806 102.708 64.6033C102.708 64.626 102.717 64.6478 102.733 64.6641L103.616 65.5452H102.621C102.599 65.5456 102.577 65.5548 102.561 65.5708C102.545 65.5868 102.536 65.6083 102.536 65.6309C102.536 65.6536 102.545 65.6754 102.561 65.6915C102.577 65.7076 102.599 65.7166 102.621 65.7166H103.616L102.733 66.5994C102.717 66.6157 102.708 66.6375 102.708 66.6602C102.708 66.6829 102.717 66.7047 102.733 66.7211C102.749 66.7365 102.771 66.7451 102.794 66.7451C102.816 66.7451 102.838 66.7365 102.855 66.7211L103.736 65.8383V66.8308C103.736 66.8535 103.745 66.8753 103.761 66.8914C103.777 66.9074 103.799 66.9165 103.822 66.9165C103.845 66.9165 103.866 66.9074 103.882 66.8914C103.899 66.8753 103.908 66.8535 103.908 66.8308V65.8383L104.791 66.7211C104.807 66.7365 104.829 66.7451 104.852 66.7451C104.874 66.7451 104.896 66.7365 104.913 66.7211C104.928 66.7047 104.937 66.6829 104.937 66.6602C104.937 66.6375 104.928 66.6157 104.913 66.5994L104.029 65.7166H105.022C105.045 65.7166 105.067 65.7076 105.083 65.6915C105.099 65.6754 105.108 65.6536 105.108 65.6309C105.107 65.6091 105.097 65.5886 105.081 65.5736C105.065 65.5586 105.044 65.5503 105.022 65.5503Z" fill="black"/>
<path d="M108.624 65.5503H107.631L108.514 64.6693C108.53 64.653 108.539 64.6312 108.539 64.6084C108.539 64.5857 108.53 64.5639 108.514 64.5476C108.506 64.5396 108.497 64.5332 108.486 64.5288C108.476 64.5245 108.465 64.5222 108.453 64.5222C108.442 64.5222 108.431 64.5245 108.42 64.5288C108.41 64.5332 108.4 64.5396 108.392 64.5476L107.509 65.4303V64.4362C107.509 64.4134 107.5 64.3916 107.484 64.3756C107.468 64.3595 107.446 64.3505 107.423 64.3505C107.401 64.3509 107.379 64.3601 107.363 64.376C107.347 64.392 107.338 64.4136 107.338 64.4362V65.4303L106.456 64.5424C106.448 64.5344 106.439 64.528 106.428 64.5237C106.418 64.5193 106.407 64.5171 106.395 64.5171C106.384 64.5171 106.373 64.5193 106.362 64.5237C106.352 64.528 106.342 64.5344 106.334 64.5424C106.319 64.5588 106.31 64.5806 106.31 64.6033C106.31 64.626 106.319 64.6478 106.334 64.6641L107.218 65.5452H106.223C106.2 65.5456 106.179 65.5548 106.163 65.5708C106.147 65.5868 106.138 65.6083 106.137 65.6309C106.137 65.6536 106.146 65.6754 106.162 65.6915C106.178 65.7076 106.2 65.7166 106.223 65.7166H107.218L106.334 66.5994C106.319 66.6157 106.31 66.6375 106.31 66.6602C106.31 66.6829 106.319 66.7047 106.334 66.7211C106.351 66.7365 106.373 66.7451 106.395 66.7451C106.418 66.7451 106.44 66.7365 106.456 66.7211L107.338 65.8383V66.8308C107.338 66.8535 107.347 66.8753 107.363 66.8914C107.379 66.9074 107.401 66.9165 107.423 66.9165C107.446 66.9165 107.468 66.9074 107.484 66.8914C107.5 66.8753 107.509 66.8535 107.509 66.8308V65.8383L108.392 66.7211C108.409 66.7365 108.431 66.7451 108.453 66.7451C108.476 66.7451 108.498 66.7365 108.514 66.7211C108.53 66.7047 108.539 66.6829 108.539 66.6602C108.539 66.6375 108.53 66.6157 108.514 66.5994L107.631 65.7166H108.624C108.647 65.7166 108.668 65.7076 108.685 65.6915C108.701 65.6754 108.71 65.6536 108.71 65.6309C108.708 65.6091 108.699 65.5886 108.683 65.5736C108.667 65.5586 108.646 65.5503 108.624 65.5503Z" fill="black"/>
<path d="M112.225 65.5503H111.232L112.116 64.6693C112.131 64.653 112.14 64.6312 112.14 64.6084C112.14 64.5857 112.131 64.5639 112.116 64.5476C112.108 64.5396 112.098 64.5332 112.088 64.5288C112.077 64.5245 112.066 64.5222 112.055 64.5222C112.043 64.5222 112.032 64.5245 112.022 64.5288C112.011 64.5332 112.002 64.5396 111.994 64.5476L111.111 65.4303V64.4362C111.111 64.4134 111.102 64.3916 111.086 64.3756C111.069 64.3595 111.048 64.3505 111.025 64.3505C111.002 64.3509 110.981 64.3601 110.965 64.376C110.949 64.392 110.94 64.4136 110.939 64.4362V65.4303L110.058 64.5424C110.05 64.5344 110.04 64.528 110.03 64.5237C110.019 64.5193 110.008 64.5171 109.997 64.5171C109.985 64.5171 109.974 64.5193 109.964 64.5237C109.953 64.528 109.944 64.5344 109.936 64.5424C109.92 64.5588 109.911 64.5806 109.911 64.6033C109.911 64.626 109.92 64.6478 109.936 64.6641L110.819 65.5452H109.824C109.802 65.5456 109.78 65.5548 109.764 65.5708C109.748 65.5868 109.739 65.6083 109.739 65.6309C109.739 65.6536 109.748 65.6754 109.764 65.6915C109.78 65.7076 109.802 65.7166 109.824 65.7166H110.819L109.936 66.5994C109.92 66.6157 109.911 66.6375 109.911 66.6602C109.911 66.6829 109.92 66.7047 109.936 66.7211C109.952 66.7365 109.974 66.7451 109.997 66.7451C110.019 66.7451 110.041 66.7365 110.058 66.7211L110.939 65.8383V66.8308C110.939 66.8535 110.948 66.8753 110.964 66.8914C110.98 66.9074 111.002 66.9165 111.025 66.9165C111.048 66.9165 111.069 66.9074 111.086 66.8914C111.102 66.8753 111.111 66.8535 111.111 66.8308V65.8383L111.994 66.7211C112.01 66.7365 112.032 66.7451 112.055 66.7451C112.077 66.7451 112.099 66.7365 112.116 66.7211C112.131 66.7047 112.14 66.6829 112.14 66.6602C112.14 66.6375 112.131 66.6157 112.116 66.5994L111.232 65.7166H112.225C112.248 65.7166 112.27 65.7076 112.286 65.6915C112.302 65.6754 112.311 65.6536 112.311 65.6309C112.31 65.6091 112.3 65.5886 112.284 65.5736C112.268 65.5586 112.247 65.5503 112.225 65.5503Z" fill="black"/>
<path d="M115.827 65.5503H114.834L115.717 64.6693C115.733 64.653 115.742 64.6312 115.742 64.6084C115.742 64.5857 115.733 64.5639 115.717 64.5476C115.709 64.5396 115.7 64.5332 115.689 64.5288C115.679 64.5245 115.668 64.5222 115.656 64.5222C115.645 64.5222 115.634 64.5245 115.623 64.5288C115.613 64.5332 115.603 64.5396 115.595 64.5476L114.712 65.4303V64.4362C114.712 64.4134 114.703 64.3916 114.687 64.3756C114.671 64.3595 114.649 64.3505 114.626 64.3505C114.604 64.3509 114.582 64.3601 114.566 64.376C114.55 64.392 114.541 64.4136 114.541 64.4362V65.4303L113.659 64.5424C113.651 64.5344 113.642 64.528 113.631 64.5237C113.621 64.5193 113.61 64.5171 113.598 64.5171C113.587 64.5171 113.576 64.5193 113.565 64.5237C113.555 64.528 113.545 64.5344 113.537 64.5424C113.522 64.5588 113.513 64.5806 113.513 64.6033C113.513 64.626 113.522 64.6478 113.537 64.6641L114.421 65.5452H113.426C113.403 65.5456 113.382 65.5548 113.366 65.5708C113.35 65.5868 113.341 65.6083 113.34 65.6309C113.34 65.6536 113.349 65.6754 113.365 65.6915C113.381 65.7076 113.403 65.7166 113.426 65.7166H114.421L113.537 66.5994C113.522 66.6157 113.513 66.6375 113.513 66.6602C113.513 66.6829 113.522 66.7047 113.537 66.7211C113.554 66.7365 113.576 66.7451 113.598 66.7451C113.621 66.7451 113.643 66.7365 113.659 66.7211L114.541 65.8383V66.8308C114.541 66.8535 114.55 66.8753 114.566 66.8914C114.582 66.9074 114.604 66.9165 114.626 66.9165C114.649 66.9165 114.671 66.9074 114.687 66.8914C114.703 66.8753 114.712 66.8535 114.712 66.8308V65.8383L115.595 66.7211C115.612 66.7365 115.634 66.7451 115.656 66.7451C115.679 66.7451 115.701 66.7365 115.717 66.7211C115.733 66.7047 115.742 66.6829 115.742 66.6602C115.742 66.6375 115.733 66.6157 115.717 66.5994L114.834 65.7166H115.827C115.85 65.7166 115.872 65.7076 115.888 65.6915C115.904 65.6754 115.913 65.6536 115.913 65.6309C115.911 65.6091 115.902 65.5886 115.886 65.5736C115.87 65.5586 115.849 65.5503 115.827 65.5503Z" fill="black"/>
<path d="M119.428 65.5503H118.435L119.319 64.6693C119.335 64.653 119.343 64.6312 119.343 64.6084C119.343 64.5857 119.335 64.5639 119.319 64.5476C119.311 64.5396 119.301 64.5332 119.291 64.5288C119.28 64.5245 119.269 64.5222 119.258 64.5222C119.247 64.5222 119.235 64.5245 119.225 64.5288C119.214 64.5332 119.205 64.5396 119.197 64.5476L118.314 65.4303V64.4362C118.314 64.4134 118.305 64.3916 118.289 64.3756C118.273 64.3595 118.251 64.3505 118.228 64.3505C118.205 64.3509 118.184 64.3601 118.168 64.376C118.152 64.392 118.143 64.4136 118.142 64.4362V65.4303L117.261 64.5424C117.253 64.5344 117.243 64.528 117.233 64.5237C117.222 64.5193 117.211 64.5171 117.2 64.5171C117.188 64.5171 117.177 64.5193 117.167 64.5237C117.156 64.528 117.147 64.5344 117.139 64.5424C117.123 64.5588 117.114 64.5806 117.114 64.6033C117.114 64.626 117.123 64.6478 117.139 64.6641L118.022 65.5452H117.027C117.005 65.5456 116.983 65.5548 116.967 65.5708C116.951 65.5868 116.942 65.6083 116.942 65.6309C116.942 65.6536 116.951 65.6754 116.967 65.6915C116.983 65.7076 117.005 65.7166 117.027 65.7166H118.022L117.139 66.5994C117.123 66.6157 117.114 66.6375 117.114 66.6602C117.114 66.6829 117.123 66.7047 117.139 66.7211C117.155 66.7365 117.177 66.7451 117.2 66.7451C117.222 66.7451 117.244 66.7365 117.261 66.7211L118.142 65.8383V66.8308C118.142 66.8535 118.151 66.8753 118.167 66.8914C118.183 66.9074 118.205 66.9165 118.228 66.9165C118.251 66.9165 118.273 66.9074 118.289 66.8914C118.305 66.8753 118.314 66.8535 118.314 66.8308V65.8383L119.197 66.7211C119.213 66.7365 119.235 66.7451 119.258 66.7451C119.28 66.7451 119.302 66.7365 119.319 66.7211C119.335 66.7047 119.343 66.6829 119.343 66.6602C119.343 66.6375 119.335 66.6157 119.319 66.5994L118.435 65.7166H119.428C119.451 65.7166 119.473 65.7076 119.489 65.6915C119.505 65.6754 119.514 65.6536 119.514 65.6309C119.513 65.6091 119.503 65.5886 119.487 65.5736C119.471 65.5586 119.45 65.5503 119.428 65.5503Z" fill="black"/>
<path d="M123.03 65.5503H122.037L122.92 64.6693C122.936 64.653 122.945 64.6312 122.945 64.6084C122.945 64.5857 122.936 64.5639 122.92 64.5476C122.912 64.5396 122.903 64.5332 122.892 64.5288C122.882 64.5245 122.871 64.5222 122.859 64.5222C122.848 64.5222 122.837 64.5245 122.826 64.5288C122.816 64.5332 122.806 64.5396 122.799 64.5476L121.915 65.4303V64.4362C121.915 64.4134 121.906 64.3916 121.89 64.3756C121.874 64.3595 121.852 64.3505 121.83 64.3505C121.807 64.3509 121.785 64.3601 121.769 64.376C121.753 64.392 121.744 64.4136 121.744 64.4362V65.4303L120.862 64.5424C120.854 64.5344 120.845 64.528 120.834 64.5237C120.824 64.5193 120.813 64.5171 120.801 64.5171C120.79 64.5171 120.779 64.5193 120.768 64.5237C120.758 64.528 120.748 64.5344 120.74 64.5424C120.725 64.5588 120.716 64.5806 120.716 64.6033C120.716 64.626 120.725 64.6478 120.74 64.6641L121.624 65.5452H120.629C120.606 65.5456 120.585 65.5548 120.569 65.5708C120.553 65.5868 120.544 65.6083 120.543 65.6309C120.543 65.6536 120.552 65.6754 120.568 65.6915C120.584 65.7076 120.606 65.7166 120.629 65.7166H121.624L120.74 66.5994C120.725 66.6157 120.716 66.6375 120.716 66.6602C120.716 66.6829 120.725 66.7047 120.74 66.7211C120.757 66.7365 120.779 66.7451 120.801 66.7451C120.824 66.7451 120.846 66.7365 120.862 66.7211L121.744 65.8383V66.8308C121.744 66.8535 121.753 66.8753 121.769 66.8914C121.785 66.9074 121.807 66.9165 121.83 66.9165C121.852 66.9165 121.874 66.9074 121.89 66.8914C121.906 66.8753 121.915 66.8535 121.915 66.8308V65.8383L122.799 66.7211C122.815 66.7365 122.837 66.7451 122.859 66.7451C122.882 66.7451 122.904 66.7365 122.92 66.7211C122.936 66.7047 122.945 66.6829 122.945 66.6602C122.945 66.6375 122.936 66.6157 122.92 66.5994L122.037 65.7166H123.03C123.053 65.7166 123.075 65.7076 123.091 65.6915C123.107 65.6754 123.116 65.6536 123.116 65.6309C123.114 65.6091 123.105 65.5886 123.089 65.5736C123.073 65.5586 123.052 65.5503 123.03 65.5503Z" fill="black"/>
<path d="M126.632 65.5503H125.639L126.522 64.6693C126.538 64.653 126.546 64.6312 126.546 64.6084C126.546 64.5857 126.538 64.5639 126.522 64.5476C126.514 64.5396 126.504 64.5332 126.494 64.5288C126.483 64.5245 126.472 64.5222 126.461 64.5222C126.45 64.5222 126.438 64.5245 126.428 64.5288C126.417 64.5332 126.408 64.5396 126.4 64.5476L125.517 65.4303V64.4362C125.517 64.4134 125.508 64.3916 125.492 64.3756C125.476 64.3595 125.454 64.3505 125.431 64.3505C125.408 64.3509 125.387 64.3601 125.371 64.376C125.355 64.392 125.346 64.4136 125.345 64.4362V65.4303L124.464 64.5424C124.456 64.5344 124.446 64.528 124.436 64.5237C124.425 64.5193 124.414 64.5171 124.403 64.5171C124.392 64.5171 124.38 64.5193 124.37 64.5237C124.359 64.528 124.35 64.5344 124.342 64.5424C124.326 64.5588 124.317 64.5806 124.317 64.6033C124.317 64.626 124.326 64.6478 124.342 64.6641L125.225 65.5452H124.231C124.208 65.5456 124.186 65.5548 124.17 65.5708C124.154 65.5868 124.145 65.6083 124.145 65.6309C124.145 65.6536 124.154 65.6754 124.17 65.6915C124.186 65.7076 124.208 65.7166 124.231 65.7166H125.225L124.342 66.5994C124.326 66.6157 124.317 66.6375 124.317 66.6602C124.317 66.6829 124.326 66.7047 124.342 66.7211C124.359 66.7365 124.38 66.7451 124.403 66.7451C124.425 66.7451 124.447 66.7365 124.464 66.7211L125.345 65.8383V66.8308C125.345 66.8535 125.354 66.8753 125.37 66.8914C125.386 66.9074 125.408 66.9165 125.431 66.9165C125.454 66.9165 125.476 66.9074 125.492 66.8914C125.508 66.8753 125.517 66.8535 125.517 66.8308V65.8383L126.4 66.7211C126.417 66.7365 126.438 66.7451 126.461 66.7451C126.484 66.7451 126.505 66.7365 126.522 66.7211C126.538 66.7047 126.546 66.6829 126.546 66.6602C126.546 66.6375 126.538 66.6157 126.522 66.5994L125.639 65.7166H126.632C126.654 65.7166 126.676 65.7076 126.692 65.6915C126.708 65.6754 126.717 65.6536 126.717 65.6309C126.716 65.6091 126.706 65.5886 126.69 65.5736C126.674 65.5586 126.653 65.5503 126.632 65.5503Z" fill="black"/>
<path d="M130.233 65.5503H129.24L130.123 64.6693C130.139 64.653 130.148 64.6312 130.148 64.6084C130.148 64.5857 130.139 64.5639 130.123 64.5476C130.115 64.5396 130.106 64.5332 130.095 64.5288C130.085 64.5245 130.074 64.5222 130.062 64.5222C130.051 64.5222 130.04 64.5245 130.029 64.5288C130.019 64.5332 130.009 64.5396 130.002 64.5476L129.118 65.4303V64.4362C129.118 64.4134 129.109 64.3916 129.093 64.3756C129.077 64.3595 129.055 64.3505 129.033 64.3505C129.01 64.3509 128.988 64.3601 128.972 64.376C128.956 64.392 128.947 64.4136 128.947 64.4362V65.4303L128.065 64.5424C128.057 64.5344 128.048 64.528 128.037 64.5237C128.027 64.5193 128.016 64.5171 128.004 64.5171C127.993 64.5171 127.982 64.5193 127.971 64.5237C127.961 64.528 127.952 64.5344 127.944 64.5424C127.928 64.5588 127.919 64.5806 127.919 64.6033C127.919 64.626 127.928 64.6478 127.944 64.6641L128.827 65.5452H127.832C127.809 65.5456 127.788 65.5548 127.772 65.5708C127.756 65.5868 127.747 65.6083 127.746 65.6309C127.746 65.6536 127.755 65.6754 127.771 65.6915C127.788 65.7076 127.809 65.7166 127.832 65.7166H128.827L127.944 66.5994C127.928 66.6157 127.919 66.6375 127.919 66.6602C127.919 66.6829 127.928 66.7047 127.944 66.7211C127.96 66.7365 127.982 66.7451 128.004 66.7451C128.027 66.7451 128.049 66.7365 128.065 66.7211L128.947 65.8383V66.8308C128.947 66.8535 128.956 66.8753 128.972 66.8914C128.988 66.9074 129.01 66.9165 129.033 66.9165C129.055 66.9165 129.077 66.9074 129.093 66.8914C129.109 66.8753 129.118 66.8535 129.118 66.8308V65.8383L130.002 66.7211C130.018 66.7365 130.04 66.7451 130.062 66.7451C130.085 66.7451 130.107 66.7365 130.123 66.7211C130.139 66.7047 130.148 66.6829 130.148 66.6602C130.148 66.6375 130.139 66.6157 130.123 66.5994L129.24 65.7166H130.233C130.256 65.7166 130.278 65.7076 130.294 65.6915C130.31 65.6754 130.319 65.6536 130.319 65.6309C130.317 65.6091 130.308 65.5886 130.292 65.5736C130.276 65.5586 130.255 65.5503 130.233 65.5503Z" fill="black"/>
<path d="M157.843 86.4023C157.838 86.1951 157.813 85.9889 157.766 85.787C157.612 85.2076 157.264 84.5065 156.691 84.3317C156.099 84.1507 155.528 83.9095 154.986 83.6118C154.883 81.7743 155.305 79.8939 154.845 78.113C154.674 77.4616 154.391 76.8377 154.315 76.1709C154.221 75.3413 154.448 74.4568 154.117 73.6923C153.856 73.0889 153.283 72.6638 152.667 72.441C152.052 72.2182 151.388 72.1582 150.735 72.0982C149.911 72.0313 147.246 71.716 146.317 72.4513C146.253 72.501 146.195 72.5586 146.145 72.6227C146.125 72.651 146.106 72.6808 146.09 72.7118L146.082 72.7256C146.063 72.7613 146.048 72.7986 146.035 72.837C146.022 72.879 146.013 72.922 146.006 72.9655C146.006 72.9792 146.006 72.993 146.006 73.0067C146.006 73.0204 146.006 73.0667 146.006 73.0975V73.1438C146.006 73.1746 146.006 73.2055 146.006 73.2381C146.006 73.2706 146.006 73.2621 146.006 73.2741C146.018 73.4283 146.041 73.5826 146.041 73.7352C146.042 73.8111 146.035 73.887 146.02 73.9614C145.963 74.1636 145.866 74.3524 145.735 74.5168L145.704 74.5614C145.685 74.5888 145.667 74.6145 145.649 74.6419C145.632 74.6693 145.619 74.6899 145.605 74.7139C145.591 74.7379 145.577 74.7533 145.565 74.7756C145.549 74.8039 145.534 74.833 145.521 74.863C145.521 74.8802 145.502 74.8956 145.495 74.9127C145.474 74.9591 145.456 75.0073 145.444 75.0567C145.404 75.2057 145.4 75.3621 145.433 75.5127C145.48 75.705 145.559 75.8877 145.668 76.0526C145.711 76.1229 145.758 76.1914 145.806 76.26L145.926 76.4229C145.903 76.5819 145.891 76.7422 145.89 76.9028C145.89 77.4396 146.012 77.9693 146.246 78.4521C146.481 78.9349 146.822 79.3581 147.244 79.6899C147.312 80.4138 147.305 81.1428 147.222 81.8651C147.207 82.0159 147.188 82.1685 147.167 82.3193C147.147 82.4702 147.131 82.5696 147.111 82.6947C146.86 82.7306 146.604 82.7113 146.361 82.6382C146.249 82.5882 146.135 82.5442 146.018 82.5062C145.519 82.381 145.01 82.8781 144.516 82.7273C144.516 82.7513 144.502 82.7736 144.494 82.7959C144.39 82.7318 144.272 82.6969 144.151 82.6947C143.857 82.681 143.619 82.4685 143.406 82.2679L142.753 81.6526C142.71 81.6149 142.672 81.5723 142.64 81.5257C142.605 81.4591 142.578 81.3882 142.561 81.3149C142.451 80.9601 142.185 80.6772 141.928 80.4081C141.879 80.3468 141.814 80.2999 141.741 80.2727C141.713 80.2684 141.684 80.2684 141.655 80.2727C141.638 80.2488 141.619 80.2259 141.599 80.2041C141.554 80.1532 141.507 80.1051 141.456 80.0602C141.144 79.7722 141.113 79.5254 140.842 79.2031C140.606 78.8958 140.392 78.5722 140.201 78.2347C140.179 78.0547 140.148 77.8696 140.11 77.6827C140.024 77.255 139.898 76.8361 139.734 76.4314L139.391 75.6721L139.352 75.7115C139.103 75.3413 138.837 75.139 138.599 75.187C138.199 75.2693 138.002 76.044 138.066 77.0571L138.203 78.0855C138.203 78.1112 138.215 78.1369 138.222 78.1627C138.197 78.2845 138.184 78.4086 138.184 78.5329C138.184 78.6769 138.318 78.7832 138.388 78.9117C138.501 79.0859 138.56 79.2889 138.56 79.4962C138.551 79.5699 138.529 79.6402 138.525 79.7122C138.535 79.8732 138.591 80.0281 138.687 80.1579L139.544 81.5977L139.716 81.8994L139.726 81.9131C139.78 82.0184 139.859 82.1089 139.956 82.1771C139.989 82.5376 140.085 82.8896 140.239 83.2175C140.268 83.2827 140.3 83.3444 140.335 83.4061C140.565 83.7848 140.837 84.1372 141.144 84.4568L141.552 84.9145C141.955 85.3636 142.358 85.8144 142.796 86.2292C142.952 86.3956 143.141 86.5281 143.351 86.6183C143.454 86.6594 143.566 86.6726 143.676 86.6567C143.785 86.6407 143.889 86.5961 143.976 86.5274C143.976 86.74 143.976 86.9525 143.976 87.1651C144.039 87.169 144.101 87.1898 144.154 87.2254C144.207 87.261 144.249 87.3101 144.277 87.3676C144.304 87.425 144.316 87.4888 144.311 87.5524C144.306 87.6159 144.283 87.6769 144.247 87.729C143.886 88.6529 143.523 89.5854 142.977 90.4133C143.362 90.641 143.719 90.9131 144.041 91.2241C144.249 91.4551 144.435 91.706 144.595 91.9731C144.61 92.1 144.622 92.2251 144.629 92.3502C144.756 94.3934 143.965 96.4212 143.257 98.3684C143.053 98.9203 142.83 99.498 142.847 100.072C142.713 100.155 142.584 100.247 142.463 100.348C142.604 100.715 142.549 101.042 142.533 101.435C142.528 101.67 142.48 101.903 142.391 102.121C142.316 102.272 142.234 102.419 142.144 102.561C141.7 103.344 141.602 104.275 141.513 105.17C141.46 105.71 141.669 106.37 141.424 106.853C141 107.683 140.624 108.567 140.566 109.489C140.564 109.697 140.538 109.903 140.487 110.105C140.434 110.276 140.34 110.422 140.292 110.59C140.242 110.815 140.231 111.047 140.257 111.276C140.29 112.097 140.168 112.918 139.897 113.694C139.683 114.306 139.446 114.961 139.614 115.59C139.201 116.024 138.945 116.585 138.889 117.182C138.884 117.335 138.866 117.487 138.834 117.637C138.782 117.789 138.713 117.936 138.628 118.074C138.283 118.702 138.121 119.415 138.162 120.131C137.647 120.828 137.39 121.689 137.237 122.544C137.085 123.399 137.018 124.27 136.822 125.115C136.562 126.233 136.09 127.362 135.997 128.507C135.442 128.862 135.202 129.549 135.095 130.199C134.989 130.849 134.972 131.531 134.699 132.131C134.558 132.443 134.356 132.722 134.222 133.041C134.129 133.295 134.06 133.557 134.017 133.824C133.934 134.243 133.862 134.709 133.963 135.11C133.818 135.264 133.648 135.393 133.461 135.492C133.488 135.386 133.511 135.28 133.529 135.172C133.087 135.573 132.284 135.432 131.931 135.914C131.825 136.069 131.784 136.26 131.816 136.445C131.848 136.63 131.951 136.796 132.103 136.906C132.213 136.974 132.333 137.025 132.458 137.059C133.315 137.333 134.197 137.609 135.078 137.463C135.182 137.452 135.283 137.42 135.375 137.369C135.489 137.285 135.584 137.176 135.651 137.05C135.783 136.841 135.915 136.632 136.045 136.423C136.361 136.517 136.683 136.592 137.008 136.648C137.04 136.922 137.064 137.196 137.076 137.47C137.248 137.505 137.477 137.515 137.558 137.355C137.582 137.295 137.592 137.23 137.587 137.165C137.587 137.044 137.604 136.882 137.615 136.718H137.649C138.172 136.739 138.693 136.634 139.167 136.411C138.983 134.892 139.589 133.408 140.113 131.972C140.667 130.46 141.142 128.92 141.621 127.381C141.964 126.298 142.343 125.249 142.679 124.164C143.102 122.793 143.527 121.421 143.953 120.05C144.139 119.447 144.325 118.85 144.538 118.25C144.986 117.036 145.517 115.855 146.128 114.714C146.299 114.39 146.471 114.07 146.612 113.734C146.783 113.324 146.905 112.895 147.042 112.472C147.341 111.603 147.701 110.757 148.119 109.939C148.131 109.916 148.14 109.896 148.152 109.875C148.291 110.442 148.43 111.018 148.522 111.589C148.647 112.289 148.657 113.005 148.551 113.708C148.469 114.186 148.313 114.659 148.332 115.144C148.357 115.814 148.716 116.423 148.893 117.069C149.006 117.553 149.071 118.047 149.085 118.543C149.133 119.315 149.551 120.18 149.256 120.895C148.339 123.159 148.783 125.717 148.26 128.094C147.99 129.315 147.166 130.461 147.231 131.709C147.276 132.595 147.354 133.478 147.464 134.359C147.49 134.637 147.563 134.909 147.678 135.163C147.747 135.297 147.825 135.425 147.913 135.547C147.838 135.576 147.774 135.653 147.72 135.816C147.579 136.245 147.72 136.776 148.1 137.016C148.255 137.099 148.423 137.157 148.596 137.188C148.829 137.254 149.07 137.287 149.313 137.287C149.388 137.283 149.463 137.274 149.537 137.259C149.803 137.371 150.073 137.468 150.349 137.551C150.349 137.621 150.362 137.691 150.371 137.762C150.371 137.798 150.38 137.835 150.395 137.868C150.41 137.901 150.432 137.931 150.46 137.955C150.503 137.975 150.55 137.984 150.597 137.979H151.529C151.529 137.902 151.529 137.823 151.529 137.746C151.635 137.757 151.743 137.746 151.845 137.713C151.947 137.68 152.041 137.626 152.12 137.554C152.203 137.449 152.261 137.328 152.292 137.198C152.546 136.337 152.798 135.476 153.048 134.615C153.348 133.662 153.473 132.663 153.417 131.666C153.086 128.507 153.813 125.338 153.576 122.17C153.434 120.266 153.532 118.352 153.868 116.473C153.945 116.048 154.039 115.616 154.074 115.192C154.149 114.393 154.056 113.586 154.113 112.793C154.132 112.515 154.17 112.239 154.204 111.963C154.439 110.25 154.562 108.524 154.573 106.795C154.567 106.222 154.532 105.65 154.466 105.081C154.645 105.035 154.807 104.94 154.935 104.807C155.087 104.608 155.048 104.328 155.046 104.075C155.046 103.468 155.302 102.895 155.507 102.323C155.772 101.533 155.988 100.728 156.156 99.9128C156.333 99.2556 156.43 98.5793 156.444 97.8987C156.444 97.8302 156.44 97.7616 156.434 97.6931C156.498 97.6483 156.552 97.5897 156.591 97.5216C156.636 97.4212 156.664 97.3141 156.674 97.2045C156.735 96.7674 156.799 96.3286 156.861 95.8898C156.906 95.5756 156.951 95.2619 156.996 94.9488L157.541 91.1452C157.588 90.8144 157.636 90.4853 157.682 90.1562L157.824 89.1723C157.84 89.0557 157.857 88.9392 157.869 88.8295C158.287 88.1301 157.888 87.1977 157.843 86.4023ZM153.293 100.643C153.091 100.163 152.902 99.6711 152.95 99.1535H152.931C152.977 98.9942 152.969 98.8245 152.909 98.6701C152.856 98.545 152.763 98.4387 152.707 98.3136C152.646 98.1608 152.615 97.998 152.614 97.8336C152.572 96.7911 152.654 95.7472 152.859 94.7242C152.882 94.6043 152.906 94.4825 152.928 94.3626C153 94.321 153.066 94.2697 153.124 94.21C153.214 94.1072 153.288 93.9917 153.345 93.8672C153.539 93.4781 153.715 93.0821 153.878 92.6793C153.931 92.5491 154.008 92.3982 154.141 92.3656C154.113 93.3684 154.216 94.3917 153.808 95.2967C153.73 95.4427 153.673 95.5983 153.636 95.7596C153.599 96.015 153.705 96.2738 153.667 96.5275C153.648 96.6594 153.592 96.7812 153.569 96.9114C153.552 96.9754 153.553 97.0427 153.57 97.1065C153.588 97.1703 153.622 97.2284 153.669 97.2748C153.692 97.2907 153.716 97.3034 153.743 97.3125C153.732 97.3811 153.724 97.4514 153.717 97.5182C153.703 97.6588 153.696 97.7908 153.688 97.873C153.648 98.2923 153.633 98.7135 153.641 99.1346C153.641 99.5888 153.659 100.043 153.652 100.506C153.658 100.639 153.636 100.771 153.587 100.895C153.553 100.959 153.509 101.017 153.456 101.066C153.406 100.912 153.352 100.777 153.293 100.643Z" fill="url(#paint0_linear_190_710)"/>
<path d="M139.755 80.7543C140.279 80.6472 140.457 79.3597 140.153 77.8786C139.85 76.3975 139.179 75.2838 138.656 75.391C138.132 75.4981 137.954 76.7857 138.258 78.2667C138.562 79.7478 139.232 80.8615 139.755 80.7543Z" fill="#FBBEBE"/>
<path d="M147.747 135.849C147.606 136.274 147.747 136.805 148.128 137.037C148.282 137.119 148.448 137.177 148.62 137.208C148.852 137.274 149.093 137.307 149.335 137.306C149.632 137.292 149.916 137.176 150.213 137.134C150.247 137.126 150.284 137.131 150.314 137.148C150.329 137.164 150.34 137.183 150.347 137.204C150.353 137.225 150.355 137.247 150.352 137.268C150.355 137.437 150.368 137.605 150.39 137.772C150.39 137.809 150.398 137.845 150.413 137.878C150.429 137.912 150.451 137.942 150.479 137.966C150.522 137.986 150.569 137.994 150.616 137.99H151.546C151.567 137.174 151.477 136.358 151.28 135.566C151.267 135.505 151.244 135.447 151.211 135.395C151.132 135.308 151.029 135.248 150.915 135.223C150.687 135.129 150.442 135.086 150.196 135.098C149.896 135.138 149.645 135.331 149.39 135.492C149.134 135.653 148.786 135.796 148.476 135.713C148.165 135.631 147.906 135.372 147.747 135.849Z" fill="#3F3D56"/>
<path d="M134.099 135.097C133.837 135.376 133.517 135.594 133.161 135.735L133.003 135.81C132.981 135.818 132.962 135.833 132.95 135.853C132.947 135.866 132.947 135.88 132.95 135.893C132.953 135.907 132.958 135.919 132.967 135.93C133.098 136.133 133.292 136.288 133.519 136.37C133.747 136.453 133.995 136.459 134.226 136.388C134.328 136.362 134.422 136.313 134.502 136.244C134.632 136.089 134.707 135.894 134.714 135.692C134.766 135.483 134.757 135.263 134.689 135.059C134.45 134.522 134.363 134.766 134.099 135.097Z" fill="#FBBEBE"/>
<path d="M137.663 137.208C137.668 137.273 137.658 137.338 137.633 137.398C137.553 137.556 137.328 137.548 137.153 137.513C137.127 136.932 137.056 136.353 136.942 135.782C136.61 135.767 136.369 136.082 136.191 136.365L135.732 137.093C135.665 137.219 135.571 137.328 135.457 137.412C135.365 137.462 135.264 137.494 135.16 137.506C134.282 137.652 133.396 137.376 132.548 137.102C132.424 137.068 132.304 137.018 132.193 136.951C132.042 136.84 131.94 136.675 131.908 136.49C131.876 136.305 131.917 136.116 132.022 135.96C132.377 135.48 133.174 135.617 133.617 135.22C133.571 135.5 133.495 135.774 133.391 136.037C133.982 135.948 134.38 135.407 134.857 135.045C134.977 134.943 135.121 134.875 135.275 134.846C135.391 134.836 135.507 134.849 135.618 134.882C136.168 135.02 136.682 135.273 137.128 135.624C137.308 135.767 137.589 135.967 137.668 136.187C137.752 136.449 137.663 136.929 137.663 137.208Z" fill="#3F3D56"/>
<path d="M149.46 80.6533C151.417 80.6533 153.003 79.0678 153.003 77.112C153.003 75.1562 151.417 73.5707 149.46 73.5707C147.503 73.5707 145.917 75.1562 145.917 77.112C145.917 79.0678 147.503 80.6533 149.46 80.6533Z" fill="#FBBEBE"/>
<path d="M156.44 98.0205C156.426 98.6975 156.33 99.3703 156.154 100.024C155.986 100.836 155.77 101.638 155.506 102.424C155.302 102.995 155.046 103.567 155.048 104.172C155.048 104.424 155.089 104.704 154.935 104.903C154.797 105.042 154.624 105.141 154.434 105.189C154.339 105.214 154.251 105.261 154.178 105.326C154.105 105.391 154.048 105.473 154.012 105.564C153.851 105.324 153.73 105.059 153.655 104.779C153.348 103.838 153.062 102.891 152.798 101.939C152.774 101.884 152.763 101.824 152.767 101.765C152.771 101.705 152.79 101.647 152.822 101.596C152.865 101.558 152.916 101.53 152.971 101.512C153.147 101.44 153.308 101.337 153.446 101.207C153.511 101.149 153.564 101.08 153.604 101.003C153.654 100.88 153.676 100.748 153.671 100.616C153.671 100.161 153.671 99.7089 153.659 99.2546C153.651 98.8352 153.667 98.4158 153.707 97.9982C153.707 97.9159 153.722 97.7839 153.736 97.6434C153.762 97.3743 153.813 97.0623 153.959 96.9577C154.177 96.812 154.828 97.0074 155.075 97.0417C155.501 97.1 155.933 97.1686 156.348 97.2491C156.408 97.5019 156.439 97.7607 156.44 98.0205Z" fill="#3F3D56"/>
<path d="M142.134 81.0767C141.996 81.3509 141.667 81.4829 141.413 81.656L140.544 82.2525C140.486 82.3049 140.418 82.3449 140.344 82.3702C140.27 82.3956 140.191 82.4057 140.113 82.3999C140.043 82.3738 139.978 82.3338 139.923 82.2823C139.868 82.2308 139.823 82.1688 139.793 82.1C139.793 82.0954 139.793 82.0908 139.793 82.0863L139.613 81.7846L138.755 80.3482C138.66 80.2196 138.604 80.0658 138.596 79.906C138.596 79.8322 138.621 79.7637 138.628 79.69C138.63 79.483 138.571 79.28 138.457 79.1072C138.388 78.9786 138.251 78.8724 138.254 78.7284C138.248 78.5392 138.28 78.3507 138.35 78.1747C138.44 78.012 138.569 77.8741 138.726 77.7736C138.806 77.7154 138.889 77.6605 138.975 77.6022C139.02 77.5712 139.071 77.548 139.124 77.5337C139.266 77.5045 139.407 77.6228 139.551 77.6279C140.17 78.0427 140.408 78.8278 140.895 79.3934C141.17 79.7157 141.197 79.9625 141.508 80.2505C141.557 80.2951 141.605 80.343 141.652 80.3927C141.713 80.4596 141.765 80.5346 141.806 80.6156C141.863 80.763 142.204 80.9361 142.134 81.0767Z" fill="#3F3D56"/>
<path d="M148.215 80.6549C148.471 81.1949 148.67 81.788 148.596 82.381C148.581 82.5417 148.53 82.6969 148.447 82.8353C148.2 83.2141 147.682 83.2826 147.231 83.3049C147.136 83.2969 147.04 83.308 146.949 83.3374C146.859 83.3669 146.775 83.4141 146.703 83.4763C146.642 83.5639 146.613 83.6689 146.619 83.775C146.625 83.8811 146.666 83.9822 146.735 84.0625C146.88 84.2172 147.06 84.3347 147.26 84.4054C147.973 84.719 148.743 84.9779 149.519 84.9059C149.879 84.8716 150.229 84.767 150.587 84.7139C150.978 84.6716 151.37 84.6499 151.763 84.6488C152.23 84.6316 152.695 84.5853 153.159 84.5391L154.391 84.4174C154.458 84.4183 154.523 84.3945 154.574 84.3505C154.665 84.2442 154.549 84.0883 154.435 84.0077C153.782 83.5243 152.95 83.1918 152.578 82.465C152.407 82.1222 152.353 81.7143 152.227 81.344C152.1 80.9738 151.897 80.6395 151.818 80.2624C151.776 79.9316 151.757 79.5983 151.762 79.2648C151.766 78.9286 151.644 78.603 151.419 78.3529C151.174 78.125 150.819 78.0667 150.486 78.053C149.666 78.017 148.793 78.2124 148.212 78.79C148.056 78.946 147.922 79.1328 147.761 79.2734C147.599 79.4139 147.38 79.4551 147.486 79.6402C147.593 79.8253 147.802 79.9402 147.915 80.103C148.03 80.2787 148.13 80.4633 148.215 80.6549Z" fill="#FBBEBE"/>
<path d="M155.2 85.6412C154.984 86.9611 154.632 88.2552 154.151 89.5031C153.909 90.0666 153.702 90.6448 153.533 91.2343C153.401 91.7657 153.427 92.3348 153.305 92.8678C153.154 93.5312 153.003 94.1963 152.882 94.8648C152.677 95.8856 152.596 96.9271 152.638 97.9673C152.638 98.1311 152.67 98.2934 152.731 98.4455C152.787 98.5689 152.878 98.6752 152.931 98.802C152.971 98.9134 152.987 99.0319 152.979 99.1499C152.971 99.2679 152.938 99.3829 152.883 99.4877C152.795 99.6839 152.676 99.8645 152.53 100.022C150.932 100.499 149.222 100.343 147.556 100.444C146.021 100.537 144.469 100.852 142.957 100.59C142.785 99.9042 143.072 99.186 143.317 98.5175C144.029 96.5754 144.816 94.5528 144.689 92.5182C144.676 92.2809 144.649 92.0445 144.608 91.8103C144.36 90.3687 144.631 88.8757 145.065 87.4787C145.334 86.608 145.322 85.6807 145.26 84.7739C145.229 84.4795 145.225 84.1829 145.248 83.8877C145.273 83.5863 145.385 83.2987 145.57 83.0598C145.57 83.0478 145.586 83.0358 145.594 83.0238C145.603 83.0118 145.67 83.0135 145.723 83.0238C145.737 83.0296 145.751 83.0325 145.766 83.0325C145.781 83.0325 145.795 83.0296 145.809 83.0238L145.828 83.0118C145.835 83.0067 145.844 83.0039 145.853 83.0039C145.861 83.0039 145.87 83.0067 145.877 83.0118C145.917 83.0358 145.939 83.1181 146.025 83.1335C146.152 83.1527 146.279 83.1647 146.407 83.1695C146.561 83.1741 146.714 83.1959 146.864 83.2347H146.884C147.107 83.2723 147.336 83.2528 147.55 83.1781C147.692 83.1426 147.829 83.0897 147.958 83.0204C147.995 82.9793 148.232 82.9415 148.28 82.9124C148.436 82.8181 148.402 82.3759 148.435 82.1942C148.453 82.012 148.496 81.8331 148.563 81.6628C148.641 81.5371 148.749 81.4325 148.877 81.3581C149.005 81.2837 149.149 81.2418 149.297 81.236C149.592 81.229 149.888 81.2554 150.177 81.3149C150.817 81.4057 151.472 81.3903 152.1 81.5377C152.415 81.6114 152.76 81.7228 153.05 81.5789C153.129 81.5977 153.141 81.6663 153.141 81.7503C153.133 81.8301 153.117 81.9088 153.093 81.9851C152.983 82.4582 153.355 82.8936 153.698 83.2364C153.843 83.398 154.014 83.5341 154.204 83.6392C154.375 83.718 154.547 83.7506 154.718 83.8363C154.857 83.9104 154.975 84.0183 155.061 84.15C155.16 84.301 155.227 84.4708 155.257 84.6488C155.294 84.9804 155.275 85.3159 155.2 85.6412Z" fill="#3F3D56"/>
<path opacity="0.1" d="M155.2 85.6413C154.984 86.9612 154.632 88.2553 154.151 89.5031C153.909 90.0666 153.702 90.6449 153.533 91.2344C153.401 91.7657 153.427 92.3348 153.305 92.8679C153.154 93.5313 153.003 94.1963 152.882 94.8648C152.846 94.8854 152.808 94.9042 152.77 94.9214C152.557 95.0232 152.331 95.0959 152.098 95.1374C151.68 95.1879 151.256 95.174 150.842 95.0962L148.395 94.7688C147.418 94.6369 146.377 94.4774 145.651 93.8158C145.248 93.4524 144.984 92.9725 144.694 92.5097C144.681 92.2723 144.654 92.036 144.614 91.8017C144.365 90.3602 144.636 88.8672 145.07 87.4702C145.339 86.5995 145.327 85.6721 145.265 84.7654C145.235 84.4709 145.231 84.1744 145.253 83.8792C145.278 83.5778 145.39 83.2901 145.576 83.0513C145.626 83.0366 145.677 83.0252 145.728 83.017C145.763 83.01 145.798 83.0054 145.833 83.0033H145.883C145.94 83.0035 145.998 83.0104 146.054 83.0239C146.171 83.061 146.286 83.1051 146.397 83.1559H146.418C146.565 83.2043 146.719 83.2263 146.874 83.221C147.1 83.221 147.334 83.185 147.56 83.1696C147.84 83.1259 148.126 83.1772 148.373 83.3153C148.532 83.4433 148.684 83.5813 148.826 83.7284C148.997 83.8631 149.19 83.9679 149.397 84.0386C150.873 84.6018 152.511 84.5674 153.962 83.9426C154.102 83.8634 154.26 83.8231 154.42 83.8261C154.538 83.8492 154.651 83.8971 154.749 83.9666C154.852 84.0266 154.953 84.0849 155.058 84.138C155.157 84.2891 155.223 84.4589 155.254 84.6368C155.293 84.9722 155.275 85.3119 155.2 85.6413Z" fill="black"/>
<path d="M156.694 84.5065C156.011 84.298 155.355 84.0104 154.739 83.6495C154.64 83.5805 154.528 83.5326 154.41 83.5089C154.249 83.507 154.091 83.5472 153.95 83.6255C152.499 84.2501 150.862 84.2846 149.386 83.7215C149.18 83.6501 148.987 83.5453 148.815 83.4112C148.673 83.2646 148.522 83.1267 148.363 82.9981C147.798 82.633 147.018 83.0615 146.387 82.8267C146.275 82.7767 146.16 82.7327 146.044 82.6947C145.545 82.5696 145.037 83.0667 144.547 82.9158C144.364 83.4116 144.229 83.9236 144.144 84.4448C144.074 85.0434 144.037 85.6454 144.032 86.248C144.032 86.6097 144.015 86.9714 144.032 87.3331C144.093 87.343 144.15 87.3653 144.202 87.3986C144.253 87.432 144.297 87.4756 144.331 87.5268C144.353 87.5865 144.362 87.6504 144.358 87.7141C144.353 87.7777 144.334 87.8395 144.303 87.8953C143.945 88.8158 143.581 89.7465 143.037 90.571C143.421 90.7992 143.776 91.0706 144.097 91.38C144.698 92.0143 144.993 92.9039 145.641 93.4901C146.371 94.15 147.412 94.3111 148.385 94.4414L150.832 94.7688C151.247 94.8463 151.671 94.8608 152.089 94.8117C152.322 94.7693 152.547 94.6961 152.76 94.594C152.899 94.5359 153.026 94.4521 153.134 94.3471C153.224 94.2445 153.299 94.129 153.355 94.0043C153.549 93.6169 153.725 93.221 153.888 92.8199C153.945 92.6776 154.031 92.5113 154.185 92.4993C155.094 91.68 155.952 90.8401 156.861 90.0208C157.226 89.7182 157.553 89.3729 157.836 88.9923C158.287 88.3255 157.878 87.3811 157.836 86.5754C157.831 86.3694 157.806 86.1643 157.759 85.9635C157.612 85.379 157.265 84.6796 156.694 84.5065Z" fill="black"/>
<path opacity="0.1" d="M142.134 81.0767C141.996 81.351 141.667 81.4829 141.413 81.6561L140.544 82.2526C140.486 82.3049 140.418 82.3449 140.344 82.3703C140.27 82.3956 140.191 82.4057 140.113 82.4C140.043 82.3739 139.978 82.3339 139.923 82.2824C139.868 82.2309 139.823 82.1689 139.793 82.1C139.793 82.0606 139.793 82.0177 139.793 81.9766C139.786 81.8379 139.805 81.6991 139.847 81.5669C139.933 81.3731 140.065 81.2035 140.232 81.0733C140.554 80.7677 140.939 80.534 141.358 80.3876C141.424 80.3622 141.495 80.3551 141.564 80.3671C141.591 80.374 141.616 80.385 141.64 80.3996C141.701 80.4665 141.753 80.5415 141.794 80.6225C141.863 80.763 142.204 80.9361 142.134 81.0767Z" fill="black"/>
<path d="M144.181 82.8833C143.89 82.8696 143.651 82.6588 143.439 82.4582L142.789 81.8549C142.745 81.8181 142.707 81.7754 142.676 81.728C142.64 81.6614 142.614 81.5905 142.597 81.5172C142.459 81.171 142.243 80.8612 141.966 80.6122C141.917 80.5508 141.852 80.5044 141.779 80.4785C141.709 80.4656 141.637 80.4727 141.571 80.499C141.151 80.6452 140.767 80.8789 140.444 81.1847C140.277 81.315 140.145 81.4846 140.06 81.6783C140.017 81.8104 139.998 81.9492 140.005 82.088C140.009 82.5409 140.111 82.9876 140.304 83.3976C140.333 83.461 140.365 83.5244 140.4 83.5861C140.629 83.9641 140.899 84.3154 141.206 84.6334L141.614 85.0894C142.015 85.5385 142.417 85.9875 142.852 86.4006C143.008 86.5671 143.198 86.6991 143.408 86.788C143.513 86.8311 143.629 86.8443 143.741 86.8261C143.854 86.808 143.959 86.7592 144.046 86.6852C144.128 86.5901 144.19 86.4793 144.228 86.3595C144.492 85.6739 144.742 84.9608 144.758 84.222C144.761 83.9262 144.749 83.6303 144.72 83.3359C144.694 83.0239 144.473 82.9022 144.181 82.8833Z" fill="black"/>
<path d="M154.574 106.881C154.565 108.605 154.442 110.327 154.207 112.035C154.173 112.311 154.135 112.587 154.117 112.863C154.06 113.663 154.153 114.467 154.077 115.263C154.038 115.693 153.948 116.12 153.873 116.54C153.538 118.414 153.44 120.323 153.581 122.222C153.818 125.381 153.093 128.542 153.422 131.692C153.462 132.305 153.428 132.92 153.321 133.525C153.259 133.9 153.171 134.27 153.055 134.632C152.805 135.49 152.553 136.347 152.3 137.203C152.271 137.333 152.212 137.455 152.129 137.56C152.041 137.635 151.939 137.691 151.828 137.724C151.717 137.757 151.6 137.766 151.486 137.75C150.496 137.719 149.565 137.292 148.666 136.876C148.563 136.835 148.467 136.777 148.383 136.704C148.196 136.51 148.212 136.205 148.129 135.95C148.047 135.695 147.824 135.455 147.697 135.192C147.593 134.944 147.53 134.681 147.51 134.412C147.396 133.535 147.318 132.654 147.277 131.769C147.212 130.525 148.035 129.38 148.306 128.17C148.821 125.791 148.385 123.24 149.299 120.983C149.587 120.269 149.169 119.406 149.128 118.638C149.113 118.142 149.048 117.65 148.935 117.167C148.764 116.522 148.402 115.916 148.376 115.247C148.358 114.764 148.514 114.292 148.594 113.816C148.701 113.115 148.691 112.4 148.565 111.702C148.474 111.126 148.335 110.551 148.196 109.988L148.165 110.052C147.748 110.868 147.388 111.713 147.09 112.58C146.953 113 146.833 113.428 146.661 113.836C146.521 114.179 146.348 114.493 146.178 114.815C145.569 115.952 145.039 117.129 144.591 118.338C144.379 118.931 144.192 119.538 144.007 120.132L142.736 124.246C142.393 125.328 142.017 126.373 141.681 127.453C141.206 128.996 140.731 130.525 140.179 132.033C139.664 133.465 139.052 134.947 139.235 136.459C138.762 136.681 138.243 136.786 137.721 136.766C136.837 136.688 135.97 136.477 135.148 136.142C134.821 136.02 134.481 135.883 134.26 135.614C133.879 135.149 133.974 134.469 134.089 133.878C134.132 133.611 134.201 133.349 134.294 133.096C134.425 132.781 134.637 132.501 134.771 132.189C135.04 131.591 135.058 130.914 135.164 130.264C135.27 129.615 135.507 128.929 136.063 128.576C136.157 127.434 136.627 126.308 136.886 125.192C137.081 124.347 137.146 123.478 137.301 122.621C137.455 121.764 137.704 120.907 138.222 120.213C138.181 119.497 138.343 118.784 138.688 118.156C138.772 118.018 138.84 117.871 138.892 117.719C138.924 117.57 138.943 117.419 138.947 117.266C139.004 116.671 139.259 116.111 139.671 115.677C139.499 115.052 139.738 114.399 139.952 113.792C140.222 113.018 140.344 112.199 140.312 111.38C140.286 111.151 140.297 110.92 140.345 110.694C140.393 110.523 140.487 110.377 140.542 110.213C140.591 110.011 140.617 109.805 140.619 109.597C140.686 108.67 141.062 107.796 141.477 106.968C141.724 106.485 141.515 105.828 141.566 105.29C141.655 104.395 141.753 103.47 142.197 102.69C142.279 102.542 142.369 102.402 142.442 102.249C142.532 102.031 142.58 101.799 142.585 101.564C142.6 101.171 142.655 100.845 142.514 100.48C143.432 99.7174 144.684 99.5032 145.878 99.4517C147.071 99.4003 148.279 99.5083 149.447 99.2546C149.79 99.1775 150.133 99.0712 150.494 99.0198C151.316 98.8998 152.149 99.0866 152.961 99.2718C152.904 99.786 153.093 100.28 153.304 100.758C154.127 102.695 154.559 104.776 154.574 106.881Z" fill="#33313F"/>
<path opacity="0.1" d="M150.536 107.273L148.565 111.702C148.474 111.126 148.335 110.55 148.196 109.988L148.165 110.052V109.959L149.239 107.599L150.536 107.273Z" fill="black"/>
<path opacity="0.1" d="M156.44 98.021C156.327 98.1061 156.191 98.1567 156.049 98.1668C155.832 98.1745 155.615 98.1449 155.408 98.0794L153.864 97.6935C153.816 97.6816 153.769 97.6649 153.724 97.6437C153.749 97.3745 153.801 97.0624 153.947 96.9578C154.164 96.812 154.816 97.0075 155.063 97.0418C155.488 97.1001 155.921 97.1687 156.336 97.2493C156.4 97.5017 156.435 97.7606 156.44 98.021Z" fill="black"/>
<path d="M157.745 87.8216C157.778 87.9639 157.824 88.1044 157.852 88.2484C157.898 88.6017 157.886 88.9601 157.816 89.3095L157.675 90.2899L157.535 91.2755L156.991 95.0688L156.857 96.0082L156.668 97.3194C156.66 97.4286 156.632 97.5353 156.586 97.6348C156.53 97.728 156.451 97.8058 156.358 97.8611C156.264 97.9165 156.158 97.9477 156.049 97.9519C155.832 97.9588 155.615 97.9293 155.408 97.8645L153.864 97.4771C153.797 97.4651 153.732 97.4388 153.676 97.4C153.629 97.3539 153.595 97.2962 153.577 97.2326C153.56 97.1691 153.559 97.102 153.576 97.0383C153.599 96.9081 153.655 96.7864 153.674 96.6561C153.712 96.4024 153.605 96.1419 153.643 95.8899C153.68 95.7294 153.738 95.5744 153.815 95.4288C154.329 94.2923 154.031 92.9656 154.206 91.7315C154.363 90.7602 154.774 89.8474 155.396 89.0849C155.78 88.6036 156.221 88.1708 156.71 87.7959C156.902 87.6468 157.207 87.3399 157.449 87.2817C157.759 87.2165 157.694 87.6056 157.745 87.8216Z" fill="black"/>
<path d="M146.064 73.0564C145.951 73.4164 146.128 73.8123 146.047 74.1791C145.96 74.5837 145.579 74.8648 145.471 75.271C145.3 75.8898 145.824 76.4537 146.209 76.968C147.632 78.8775 147.445 81.5206 146.958 83.8501C146.566 85.719 146.024 87.5533 145.337 89.3352C145.123 89.8888 144.886 90.4511 144.464 90.8659C145.253 90.6396 146.092 90.4116 146.883 90.631C147.884 90.9087 148.748 91.8806 149.764 91.6595C150.374 91.5241 150.803 90.9824 151.352 90.6825C152.381 90.1288 153.621 90.4768 154.768 90.655C155.015 90.7133 155.274 90.7003 155.514 90.6173C155.698 90.5187 155.853 90.3755 155.967 90.2008C156.479 89.5442 156.786 88.7512 156.848 87.9211C156.876 87.5077 156.815 87.0933 156.669 86.7053C156.524 86.3173 156.298 85.9646 156.006 85.6704C155.763 85.4408 155.471 85.2556 155.284 84.9848C155.103 84.6685 155.005 84.3108 155.001 83.9461C154.866 82.0606 155.326 80.1356 154.852 78.3118C154.681 77.6622 154.401 77.04 154.326 76.3749C154.231 75.547 154.456 74.6608 154.127 73.9032C153.868 73.3015 153.297 72.8747 152.681 72.6553C152.065 72.4359 151.407 72.3742 150.753 72.3125C149.813 72.2336 146.457 71.8308 146.064 73.0564Z" fill="#33313F"/>
<g opacity="0.1">
<path opacity="0.1" d="M146.958 83.85C146.568 85.7112 146.029 87.538 145.346 89.3128C145.464 89.078 145.564 88.8311 145.658 88.586C146.346 86.8044 146.888 84.97 147.279 83.1009C147.767 80.7698 147.954 78.1301 146.531 76.2188C146.188 75.7629 145.747 75.2692 145.763 74.7344C145.636 74.8962 145.537 75.0781 145.471 75.2727C145.3 75.8915 145.824 76.4554 146.208 76.9696C147.632 78.8774 147.445 81.5205 146.958 83.85Z" fill="black"/>
<path opacity="0.1" d="M146.068 74.0067C146.206 73.8358 146.308 73.6394 146.37 73.4287C146.396 73.174 146.389 72.9168 146.349 72.6638C146.217 72.7632 146.118 72.9001 146.064 73.0566C145.963 73.3601 146.08 73.6894 146.068 74.0067Z" fill="black"/>
<path opacity="0.1" d="M156.289 89.4465C156.176 89.6207 156.02 89.7634 155.837 89.8613C155.597 89.946 155.338 89.9591 155.091 89.899C153.943 89.7276 152.69 89.3745 151.674 89.9282C151.124 90.2264 150.697 90.7681 150.084 90.9052C149.071 91.1315 148.207 90.1596 147.205 89.8767C146.495 89.6796 145.747 89.8425 145.032 90.0481C144.89 90.351 144.698 90.628 144.464 90.8675C145.253 90.6412 146.092 90.4133 146.883 90.6327C147.884 90.9103 148.748 91.8822 149.764 91.6611C150.374 91.5257 150.803 90.984 151.352 90.6841C152.381 90.1304 153.621 90.4784 154.768 90.6566C155.015 90.7149 155.274 90.7019 155.514 90.6189C155.698 90.5203 155.854 90.3771 155.967 90.2024C156.278 89.7927 156.518 89.3338 156.677 88.8448C156.562 89.0544 156.433 89.2555 156.289 89.4465Z" fill="black"/>
</g>
</g>
<defs>
<linearGradient id="paint0_linear_190_710" x1="131.816" y1="104.975" x2="158.056" y2="104.975" gradientUnits="userSpaceOnUse">
<stop stop-color="#808080" stop-opacity="0.25"/>
<stop offset="0.54" stop-color="#808080" stop-opacity="0.12"/>
<stop offset="1" stop-color="#808080" stop-opacity="0.1"/>
</linearGradient>
<clipPath id="clip0_190_710">
<rect width="200" height="138" fill="white"/>
</clipPath>
</defs>
</svg>
