<svg width="31" height="30" viewBox="0 0 31 30" fill="none" xmlns="http://www.w3.org/2000/svg">
<path d="M5.16667 7.5H7.75V22.5H5.16667V7.5ZM9.04167 7.5H10.3333V22.5H9.04167V7.5ZM11.625 7.5H15.5V22.5H11.625V7.5ZM16.7917 7.5H18.0833V22.5H16.7917V7.5ZM20.6667 7.5H23.25V22.5H20.6667V7.5ZM24.5417 7.5H25.8333V22.5H24.5417V7.5ZM2.58333 5V10H0V5C0 4.33696 0.272172 3.70107 0.756641 3.23223C1.24111 2.76339 1.89819 2.5 2.58333 2.5H7.75V5H2.58333ZM28.4167 2.5C29.1018 2.5 29.7589 2.76339 30.2434 3.23223C30.7278 3.70107 31 4.33696 31 5V10H28.4167V5H23.25V2.5H28.4167ZM2.58333 20V25H7.75V27.5H2.58333C1.89819 27.5 1.24111 27.2366 0.756641 26.7678C0.272172 26.2989 0 25.663 0 25V20H2.58333ZM28.4167 25V20H31V25C31 25.663 30.7278 26.2989 30.2434 26.7678C29.7589 27.2366 29.1018 27.5 28.4167 27.5H23.25V25H28.4167Z" fill="white"/>
</svg>
