<svg width="22" height="22" viewBox="0 0 22 22" fill="none" xmlns="http://www.w3.org/2000/svg">
<path fill-rule="evenodd" clip-rule="evenodd" d="M6.30707 0.25C5.50607 0.25 4.95707 0.25 4.46707 0.383C3.95994 0.522182 3.48775 0.766472 3.08117 1.10001C2.67458 1.43354 2.3427 1.84886 2.10707 2.319C1.88007 2.771 1.77307 3.31 1.61607 4.096L0.996066 7.194C0.886263 7.73708 0.896872 8.29764 1.02714 8.83618C1.15742 9.37472 1.40418 9.87815 1.75007 10.311V13.056C1.75007 14.894 1.75007 16.35 1.90307 17.489C2.06107 18.661 2.39307 19.61 3.14107 20.359C3.88907 21.107 4.83807 21.439 6.01107 21.597C7.15007 21.75 8.60607 21.75 10.4431 21.75H11.5561C13.3941 21.75 14.8501 21.75 15.9891 21.597C17.1611 21.439 18.1101 21.107 18.8591 20.359C19.6071 19.61 19.9391 18.661 20.0971 17.489C20.2501 16.349 20.2501 14.894 20.2501 13.056V10.312C20.5959 9.87895 20.8426 9.37531 20.9727 8.83659C21.1028 8.29787 21.1132 7.73717 21.0031 7.194L20.3831 4.096C20.2271 3.31 20.1191 2.771 19.8931 2.319C19.6573 1.84876 19.3253 1.43337 18.9185 1.09983C18.5118 0.76629 18.0394 0.522057 17.5321 0.383C17.0431 0.25 16.4941 0.25 15.6921 0.25H6.30707ZM17.2681 11.75C17.777 11.7509 18.281 11.6496 18.7501 11.452V13C18.7501 14.907 18.7481 16.262 18.6101 17.29C18.4751 18.295 18.2211 18.875 17.7981 19.298C17.3751 19.721 16.7951 19.975 15.7881 20.11C15.2776 20.1733 14.7643 20.2114 14.2501 20.224V17.468C14.2501 17.028 14.2501 16.648 14.2221 16.338C14.1921 16.008 14.1261 15.682 13.9481 15.375C13.7508 15.0329 13.467 14.7487 13.1251 14.551C12.8181 14.374 12.4921 14.308 12.1621 14.278C11.8521 14.25 11.4721 14.25 11.0321 14.25H10.9671C10.5271 14.25 10.1481 14.25 9.83707 14.278C9.50707 14.308 9.18207 14.374 8.87507 14.551C8.5328 14.7485 8.24861 15.0327 8.05107 15.375C7.87407 15.682 7.80807 16.008 7.77807 16.337C7.75007 16.649 7.75007 17.028 7.75007 17.467V20.224C7.23517 20.2114 6.7212 20.1734 6.21007 20.11C5.20507 19.975 4.62507 19.721 4.20207 19.298C3.77807 18.875 3.52507 18.295 3.39007 17.289C3.25107 16.262 3.25007 14.907 3.25007 13V11.452C4.04917 11.7896 4.93962 11.8442 5.77398 11.6067C6.60834 11.3692 7.33656 10.8538 7.83807 10.146C8.20135 10.6437 8.67717 11.0485 9.2267 11.3272C9.77622 11.606 10.3839 11.7509 11.0001 11.75C11.6163 11.7509 12.2239 11.606 12.7734 11.3272C13.323 11.0485 13.7988 10.6437 14.1621 10.146C14.514 10.642 14.9797 11.0465 15.5201 11.3256C16.0605 11.6046 16.6599 11.7502 17.2681 11.75ZM9.25007 20.248C9.63807 20.25 10.0541 20.25 10.5001 20.25H11.5001C11.9461 20.25 12.3611 20.25 12.7501 20.248V17.5C12.7501 17.019 12.7491 16.708 12.7281 16.473C12.7081 16.248 12.6731 16.166 12.6491 16.125C12.5833 16.0112 12.4888 15.9168 12.3751 15.851C12.3341 15.827 12.2521 15.793 12.0271 15.772C11.6852 15.751 11.3426 15.7436 11.0001 15.75C10.5191 15.75 10.2081 15.75 9.97307 15.772C9.74707 15.792 9.66607 15.827 9.62507 15.851C9.51094 15.9166 9.4161 16.0111 9.35007 16.125C9.32707 16.165 9.29207 16.248 9.27207 16.473C9.25107 16.708 9.25007 17.019 9.25007 17.5V20.248ZM7.67007 1.75H6.41807C5.46407 1.75 5.13307 1.757 4.86507 1.83C4.56084 1.91344 4.27756 2.05992 4.03362 2.25994C3.78967 2.45995 3.59051 2.70903 3.44907 2.991C3.32407 3.24 3.25307 3.562 3.06607 4.498L2.46807 7.488C2.40433 7.79564 2.40403 8.11306 2.46716 8.42082C2.5303 8.72859 2.65556 9.02024 2.83527 9.27795C3.01498 9.53565 3.24537 9.75398 3.51235 9.9196C3.77934 10.0852 4.07729 10.1946 4.38801 10.2411C4.69872 10.2877 5.01566 10.2703 5.31944 10.1901C5.62321 10.11 5.90745 9.96869 6.15475 9.77492C6.40206 9.58115 6.60723 9.33897 6.75774 9.06319C6.90824 8.78741 7.00091 8.48382 7.03007 8.171L7.09907 7.485L7.10307 7.443L7.67207 1.75H7.67007ZM8.59107 7.625L9.17907 1.75H12.8211L13.4051 7.592C13.4378 7.92627 13.4005 8.26369 13.2955 8.58275C13.1906 8.9018 13.0203 9.19547 12.7955 9.44504C12.5708 9.69461 12.2964 9.89459 11.9901 10.0322C11.6837 10.1699 11.352 10.2422 11.0161 10.2445C10.6803 10.2468 10.3476 10.179 10.0394 10.0456C9.73116 9.91218 9.45412 9.71598 9.22595 9.46951C8.99778 9.22305 8.82347 8.93173 8.71416 8.61415C8.60485 8.29657 8.56292 7.95969 8.59107 7.625ZM17.1351 1.83C16.8671 1.757 16.5361 1.75 15.5821 1.75H14.3281L14.9711 8.17C15.0012 8.48192 15.0945 8.78445 15.2452 9.05916C15.396 9.33387 15.6011 9.57501 15.8481 9.7679C16.0951 9.9608 16.3787 10.1014 16.6818 10.1811C16.9848 10.2609 17.3009 10.2781 17.6109 10.2318C17.9208 10.1854 18.218 10.0765 18.4845 9.91159C18.751 9.74668 18.9811 9.52926 19.1608 9.27256C19.3406 9.01586 19.4662 8.72526 19.53 8.41846C19.5938 8.11166 19.5945 7.79508 19.5321 7.488L18.9351 4.498C18.7471 3.562 18.6761 3.24 18.5521 2.991C18.4105 2.70892 18.2112 2.45978 17.9671 2.25976C17.7229 2.05974 17.4395 1.91332 17.1351 1.83Z" fill="#64C0F0"/>
</svg>
