<svg width="24" height="24" viewBox="0 0 24 24" fill="none" xmlns="http://www.w3.org/2000/svg">
<path d="M2.52632 21.6C1.83158 21.6 1.23663 21.3648 0.741475 20.8944C0.246318 20.424 -0.00083996 19.8592 2.14458e-06 19.2V2.4C2.14458e-06 1.74 0.247581 1.1748 0.742739 0.704402C1.2379 0.234002 1.83242 -0.000797962 2.52632 2.03735e-06H20.2105C20.9053 2.03735e-06 21.5002 0.235202 21.9954 0.705602C22.4905 1.176 22.7377 1.7408 22.7368 2.4V12.99C22.3579 12.77 21.9579 12.59 21.5368 12.45C21.1158 12.31 20.6737 12.2 20.2105 12.12V2.4H2.52632V19.2H11.3684C11.3684 19.62 11.4 20.03 11.4632 20.43C11.5263 20.83 11.6316 21.22 11.7789 21.6H2.52632ZM6.31579 16.8C6.67368 16.8 6.9739 16.6848 7.21642 16.4544C7.45895 16.224 7.57979 15.9392 7.57895 15.6C7.57895 15.26 7.45768 14.9748 7.21516 14.7444C6.97263 14.514 6.67284 14.3992 6.31579 14.4C5.9579 14.4 5.65768 14.5152 5.41516 14.7456C5.17263 14.976 5.05179 15.2608 5.05263 15.6C5.05263 15.94 5.1739 16.2252 5.41642 16.4556C5.65895 16.686 5.95874 16.8008 6.31579 16.8ZM6.31579 12C6.67368 12 6.9739 11.8848 7.21642 11.6544C7.45895 11.424 7.57979 11.1392 7.57895 10.8C7.57895 10.46 7.45768 10.1748 7.21516 9.9444C6.97263 9.714 6.67284 9.5992 6.31579 9.6C5.9579 9.6 5.65768 9.7152 5.41516 9.9456C5.17263 10.176 5.05179 10.4608 5.05263 10.8C5.05263 11.14 5.1739 11.4252 5.41642 11.6556C5.65895 11.886 5.95874 12.0008 6.31579 12ZM6.31579 7.2C6.67368 7.2 6.9739 7.0848 7.21642 6.8544C7.45895 6.624 7.57979 6.3392 7.57895 6C7.57895 5.66 7.45768 5.3748 7.21516 5.1444C6.97263 4.914 6.67284 4.7992 6.31579 4.8C5.9579 4.8 5.65768 4.9152 5.41516 5.1456C5.17263 5.376 5.05179 5.6608 5.05263 6C5.05263 6.34 5.1739 6.6252 5.41642 6.8556C5.65895 7.086 5.95874 7.2008 6.31579 7.2ZM16.421 12C16.7789 12 17.0792 11.8848 17.3217 11.6544C17.5642 11.424 17.685 11.1392 17.6842 10.8C17.6842 10.46 17.5629 10.1748 17.3204 9.9444C17.0779 9.714 16.7781 9.5992 16.421 9.6H11.3684C11.0105 9.6 10.7103 9.7152 10.4678 9.9456C10.2253 10.176 10.1044 10.4608 10.1053 10.8C10.1053 11.14 10.2265 11.4252 10.4691 11.6556C10.7116 11.886 11.0114 12.0008 11.3684 12H16.421ZM16.421 7.2C16.7789 7.2 17.0792 7.0848 17.3217 6.8544C17.5642 6.624 17.685 6.3392 17.6842 6C17.6842 5.66 17.5629 5.3748 17.3204 5.1444C17.0779 4.914 16.7781 4.7992 16.421 4.8H11.3684C11.0105 4.8 10.7103 4.9152 10.4678 5.1456C10.2253 5.376 10.1044 5.6608 10.1053 6C10.1053 6.34 10.2265 6.6252 10.4691 6.8556C10.7116 7.086 11.0114 7.2008 11.3684 7.2H16.421ZM11.8105 16.8C11.9789 16.34 12.1895 15.91 12.4421 15.51C12.6947 15.11 12.9895 14.74 13.3263 14.4H11.3684C11.0105 14.4 10.7103 14.5152 10.4678 14.7456C10.2253 14.976 10.1044 15.2608 10.1053 15.6C10.1053 15.94 10.2265 16.2252 10.4691 16.4556C10.7116 16.686 11.0114 16.8008 11.3684 16.8H11.8105ZM17.6842 20.4H15.1579C14.8 20.4 14.4998 20.2848 14.2573 20.0544C14.0147 19.824 13.8939 19.5392 13.8947 19.2C13.8947 18.86 14.016 18.5748 14.2585 18.3444C14.5011 18.114 14.8008 17.9992 15.1579 18H17.6842V15.6C17.6842 15.26 17.8055 14.9748 18.048 14.7444C18.2905 14.514 18.5903 14.3992 18.9474 14.4C19.3053 14.4 19.6055 14.5152 19.848 14.7456C20.0905 14.976 20.2114 15.2608 20.2105 15.6V18H22.7368C23.0947 18 23.3949 18.1152 23.6375 18.3456C23.88 18.576 24.0008 18.8608 24 19.2C24 19.54 23.8787 19.8252 23.6362 20.0556C23.3937 20.286 23.0939 20.4008 22.7368 20.4H20.2105V22.8C20.2105 23.14 20.0893 23.4252 19.8467 23.6556C19.6042 23.886 19.3044 24.0008 18.9474 24C18.5895 24 18.2893 23.8848 18.0467 23.6544C17.8042 23.424 17.6834 23.1392 17.6842 22.8V20.4Z" fill="white"/>
</svg>
